<svg viewBox="0 0 255 147" fill="none" xmlns="http://www.w3.org/2000/svg">
    <g filter="url(#filter0_d_1041_66)">
        <path d="M146.1 77.8459C146.1 79.6089 145.748 81.1955 145.043 82.6059C144.338 84.0162 143.369 85.074 142.135 86.0436C140.725 87.1014 139.139 87.8947 137.464 88.3355C135.79 88.7762 133.675 89.0406 131.031 89.0406H120.016V52.812H130.238C132.97 52.812 134.997 52.9002 136.407 53.0765C137.817 53.2527 139.051 53.6053 140.372 54.3105C141.782 55.0157 142.752 55.8972 143.369 57.0431C143.985 58.189 144.338 59.5112 144.338 61.0097C144.338 62.6845 143.897 64.183 142.928 65.5934C141.959 66.9156 140.637 67.9734 138.962 68.7667V68.943C141.254 69.56 143.016 70.6178 144.25 72.1163C145.484 73.6148 146.1 75.5541 146.1 77.8459ZM139.051 61.6268C139.051 60.7453 138.874 60.0401 138.61 59.3349C138.257 58.7179 137.817 58.189 137.112 57.8364C136.319 57.3957 135.349 57.1312 134.38 57.0431C133.411 56.9549 132.001 56.8668 130.15 56.8668H125.215V67.4445H131.031C132.618 67.4445 133.763 67.3564 134.556 67.1801C135.349 67.0038 136.054 66.7393 136.936 66.2104C137.729 65.7697 138.257 65.1527 138.61 64.3593C138.874 63.7423 139.051 62.7727 139.051 61.6268ZM140.813 78.0222C140.813 76.7 140.637 75.5541 140.196 74.6726C139.756 73.7911 138.962 72.9978 137.729 72.4689C136.936 72.0282 136.054 71.7637 135.085 71.6756C134.116 71.5874 132.794 71.4993 131.031 71.4993H125.215V84.8977H129.357C131.56 84.8977 133.323 84.8096 134.644 84.6333C135.966 84.457 137.112 84.0162 138.081 83.3992C139.051 82.7822 139.756 82.077 140.196 81.2837C140.637 80.4022 140.813 79.3444 140.813 78.0222Z"
              fill="white"/>
        <path d="M151.212 88.9525V52.812H175.269V57.1312H156.323V67.0038H173.948V71.2348H156.323V84.6333H175.269V88.9525H151.212Z"
              fill="white"/>
        <path d="M191.484 89.5694C188.664 89.5694 186.372 89.3049 184.346 88.7761C182.407 88.2472 180.556 87.542 178.882 86.7487V80.7546H179.234C180.909 82.2531 182.848 83.3991 184.962 84.1924C187.077 84.9857 189.104 85.4265 191.131 85.4265C193.951 85.4265 196.066 84.8976 197.476 83.7517C198.886 82.6057 199.679 81.1954 199.679 79.3443C199.679 77.9339 199.327 76.6999 198.534 75.8184C197.74 74.9369 196.595 74.2317 194.92 73.791C193.775 73.4384 192.629 73.174 191.66 72.9977C190.691 72.8214 189.457 72.4688 187.959 72.1162C186.637 71.7636 185.491 71.411 184.434 70.8821C183.376 70.3532 182.495 69.7362 181.614 68.9429C180.821 68.1495 180.204 67.1799 179.763 66.1221C179.323 65.0644 179.146 63.8303 179.146 62.42C179.146 59.5111 180.38 57.043 182.759 55.1037C185.139 53.1645 188.311 52.1067 192.012 52.1067C194.127 52.1067 196.154 52.283 198.093 52.7237C200.032 53.1645 201.794 53.6933 203.38 54.4867V60.2163H203.028C201.794 59.1585 200.208 58.277 198.357 57.4837C196.419 56.6904 194.48 56.3378 192.365 56.3378C189.986 56.3378 188.047 56.8667 186.637 57.9244C185.139 58.9822 184.434 60.3044 184.434 62.0674C184.434 63.5659 184.874 64.7999 185.756 65.6814C186.637 66.5629 187.871 67.2681 189.457 67.7088C190.514 67.9732 191.836 68.3258 193.422 68.6784C195.009 69.031 196.242 69.3836 197.3 69.648C199.943 70.4414 201.882 71.5873 203.116 73.0858C204.35 74.5843 204.967 76.5236 204.967 78.7272C204.967 80.1376 204.702 81.548 204.085 82.8702C203.468 84.2805 202.587 85.4265 201.53 86.3961C200.296 87.4538 198.886 88.2472 197.388 88.7761C195.802 89.3049 193.863 89.5694 191.484 89.5694Z"
              fill="white"/>
        <path d="M219.242 88.9525V57.1312H206.288V52.812H237.219V57.1312H224.265V88.9525H219.242Z" fill="white"/>
        <path d="M178.09 93.3589L174.741 103.05H173.331L169.982 93.3589H171.392L174.036 101.376L176.68 93.3589H178.09Z"
              fill="white"/>
        <path d="M182.407 103.05H178.618V102.081H179.852V94.328H178.618V93.3589H182.407V94.328H181.174V102.081H182.407V103.05Z"
              fill="white"/>
        <path d="M190.955 103.05H189.545L185.227 94.6805V103.05H183.993V93.3589H185.844L189.721 101.024V93.3589H190.955V103.05Z"
              fill="white"/>
        <path d="M199.856 103.05H198.446L194.128 94.6805V103.05H192.894V93.3589H194.745L198.622 101.024V93.3589H199.856V103.05Z"
              fill="white"/>
        <path d="M208.581 93.3589L205.32 98.7333V103.05H204.086V98.9095L200.826 93.3589H202.236L204.703 97.6761L207.259 93.3589H208.581Z"
              fill="white"/>
        <path d="M211.753 103.05V94.5043H208.492V93.3589H216.335V94.5043H213.075V103.05H211.753Z" fill="white"/>
        <path d="M220.038 103.227C219.333 103.227 218.716 103.139 218.275 103.05C217.746 102.874 217.306 102.698 216.865 102.522V100.936H216.953C217.394 101.376 217.835 101.641 218.363 101.905C218.892 102.081 219.421 102.258 219.95 102.258C220.655 102.258 221.183 102.081 221.536 101.817C221.888 101.553 222.065 101.112 222.065 100.672C222.065 100.319 221.976 99.9668 221.8 99.7025C221.624 99.4382 221.271 99.2619 220.919 99.1738C220.655 99.0857 220.302 98.9976 220.126 98.9976C219.861 98.9095 219.597 98.8214 219.156 98.7333C218.804 98.6452 218.54 98.5571 218.275 98.3809C218.011 98.2047 217.746 98.0285 217.57 97.8523C217.394 97.676 217.218 97.4117 217.13 97.0593C217.041 96.795 216.953 96.4426 216.953 96.0902C216.953 95.2972 217.218 94.6805 217.835 94.1518C218.451 93.6232 219.245 93.3589 220.214 93.3589C220.743 93.3589 221.271 93.447 221.712 93.5351C222.153 93.6232 222.681 93.7994 223.034 93.9756V95.5615H222.946C222.681 95.2972 222.241 95.0329 221.8 94.8567C221.36 94.6805 220.831 94.5043 220.302 94.5043C219.685 94.5043 219.245 94.6805 218.892 94.9448C218.54 95.2091 218.363 95.5615 218.363 96.0902C218.363 96.5307 218.451 96.795 218.716 97.0593C218.892 97.3236 219.245 97.4998 219.685 97.5879C219.95 97.676 220.302 97.7642 220.655 97.8523C221.007 97.9404 221.36 98.0285 221.624 98.1166C222.329 98.2928 222.77 98.6452 223.122 98.9976C223.386 99.4382 223.563 99.8787 223.563 100.495C223.563 100.848 223.475 101.288 223.298 101.641C223.122 101.993 222.946 102.346 222.681 102.61C222.329 102.874 221.976 103.139 221.624 103.227C221.095 103.139 220.566 103.227 220.038 103.227Z"
              fill="white"/>
        <path d="M228.145 103.05H224.355V102.081H225.589V94.328H224.355V93.3589H228.145V94.328H226.911V102.081H228.145V103.05Z"
              fill="white"/>
        <path d="M228.673 103.05L231.934 93.3589H233.52L236.78 103.05H235.459L234.577 100.319H230.876L229.995 103.05H228.673ZM234.225 99.2619L232.727 94.6805L231.229 99.2619H234.225Z"
              fill="white"/>
        <path d="M100.982 88.9507L92.5225 84.1025H70.4035L61.9437 88.9507C70.051 102.966 94.1969 126.061 120.458 128C111.293 122.887 96.7525 104.553 100.982 88.9507Z"
              fill="white"/>
        <path d="M82.8284 62.5946L82.6521 62.3301L82.8284 62.5946ZM106.886 16.4053C107.062 26.8948 98.3381 48.6673 82.8284 52.8102V62.5946L93.8438 81.7226L102.304 86.5707C110.411 72.5552 118.254 40.117 106.886 16.4053Z"
              fill="white"/>
        <path d="M68.9929 81.722L68.8166 81.9864L68.9929 81.722ZM80.0964 52.8096C63.8817 52.8096 31.8929 62.2414 17 83.9256C25.9886 78.5486 49.1651 75.199 60.533 86.5701L68.9929 81.722L80.0083 62.5939L80.0964 52.8096Z"
              fill="white"/>
        <path d="M76.307 76.0783C76.307 73.259 78.5982 70.8801 81.5063 70.8801C84.3262 70.8801 86.7056 73.1709 86.7056 76.0783C86.7056 78.9858 84.4144 81.2766 81.5063 81.2766C78.5982 81.2766 76.307 78.9858 76.307 76.0783Z"
              fill="white"/>
    </g>
    <defs>
        <filter id="filter0_d_1041_66" x="0.0182056" y="0.636464" width="254.183" height="145.558"
                filterUnits="userSpaceOnUse" color-interpolation-filters="sRGB">
            <feFlood flood-opacity="0" result="BackgroundImageFix"/>
            <feColorMatrix in="SourceAlpha" type="matrix" values="0 0 0 0 0 0 0 0 0 0 0 0 0 0 0 0 0 0 127 0"
                           result="hardAlpha"/>
            <feOffset dy="1.21299"/>
            <feGaussianBlur stdDeviation="8.4909"/>
            <feComposite in2="hardAlpha" operator="out"/>
            <feColorMatrix type="matrix" values="0 0 0 0 0 0 0 0 0 0 0 0 0 0 0 0 0 0 0.7 0"/>
            <feBlend mode="normal" in2="BackgroundImageFix" result="effect1_dropShadow_1041_66"/>
            <feBlend mode="normal" in="SourceGraphic" in2="effect1_dropShadow_1041_66" result="shape"/>
        </filter>
    </defs>
</svg>
