<svg width="236" height="135" viewBox="0 0 236 135" fill="none" xmlns="http://www.w3.org/2000/svg">
<g filter="url(#filter0_d_1041_89)">
<mask id="mask0_1041_89" style="mask-type:luminance" maskUnits="userSpaceOnUse" x="9" y="10" width="216" height="112">
<path d="M224.652 10.1516H9.80664V121.603H224.652V10.1516Z" fill="white"/>
</mask>
<g mask="url(#mask0_1041_89)">
<path d="M172.645 49.3696C172.694 49.3696 172.743 49.3696 172.793 49.3696C172.99 49.2712 173.139 49.222 173.287 49.1236C173.484 49.0744 173.632 49.0252 173.83 48.976C174.028 48.8776 174.274 48.9268 174.423 49.0744C174.867 49.4189 175.262 49.7633 175.657 50.1569C175.855 50.3538 176.003 50.5506 176.201 50.7474C176.25 50.7966 176.299 50.7966 176.349 50.7474C176.349 50.7966 176.349 50.7966 176.349 50.8458C176.349 50.895 176.398 50.9442 176.398 50.9934C176.942 51.6823 177.386 52.3712 177.979 52.9617C178.176 53.2077 178.374 53.4045 178.571 53.6506C178.72 53.8474 178.868 54.0442 178.967 54.241C179.016 54.3887 179.115 54.5363 179.213 54.6347C179.559 55.0775 179.905 55.5204 180.251 55.9632C180.547 56.3077 180.794 56.7013 180.992 57.1442C181.14 57.4886 181.337 57.8331 181.485 58.1775C181.535 58.3251 181.634 58.4727 181.683 58.6204C181.93 59.014 182.127 59.5061 182.325 59.9489C182.473 60.3426 182.72 60.7362 182.918 61.1299C183.016 61.3759 183.066 61.5727 183.066 61.8187C183.066 61.8679 183.066 61.9172 183.016 61.9664C182.967 62.0648 182.918 62.1632 182.868 62.2616C182.72 62.5568 182.523 62.8029 182.374 63.0981C182.078 63.6394 181.732 64.1806 181.288 64.6235C181.041 64.9187 180.794 65.2139 180.547 65.5092C180.399 65.706 180.3 65.8536 180.251 66.0997C180.251 66.1489 180.251 66.1489 180.201 66.1981C180.053 66.6901 179.806 67.0838 179.411 67.4282C179.164 67.6742 178.967 67.9203 178.818 68.2155C178.67 68.4615 178.522 68.7568 178.324 68.9536C178.176 69.1504 178.028 69.3472 177.929 69.5933C177.88 69.7409 177.781 69.8393 177.682 69.9377C177.584 70.0361 177.534 70.0853 177.534 70.233C177.485 70.3806 177.435 70.5282 177.386 70.6758C177.188 71.0695 176.892 71.4139 176.497 71.6107C176.349 71.7091 176.201 71.7583 176.053 71.8075C175.954 71.8567 175.904 71.9552 175.855 72.0536C175.806 72.2996 175.806 72.5456 175.657 72.7424C175.608 72.7917 175.608 72.8901 175.608 72.9885C175.559 73.2837 175.41 73.5789 175.262 73.825C175.164 73.9726 175.065 74.1202 174.917 74.2678C174.719 74.5139 174.571 74.7599 174.373 74.9567C174.126 75.2519 173.929 75.5472 173.731 75.8916C173.583 76.1869 173.435 76.3837 173.237 76.6297C173.139 76.7281 172.99 76.8757 172.941 77.0234C172.842 77.2202 172.694 77.3678 172.496 77.5154C172.398 77.5646 172.299 77.6138 172.2 77.663C172.052 77.7122 171.904 77.7615 171.756 77.8107C171.607 77.8599 171.558 78.0075 171.607 78.1551C171.756 78.4011 171.805 78.6472 171.854 78.9424C171.854 78.9916 171.854 79.0408 171.854 79.09C171.756 79.336 171.706 79.5821 171.706 79.8281C171.706 79.9265 171.706 80.0249 171.756 80.1233C171.805 80.271 171.854 80.4186 171.904 80.6154C171.953 80.9598 172.052 81.2551 172.052 81.5995C172.052 81.6979 172.101 81.7963 172.151 81.8947C172.25 82.1408 172.299 82.3376 172.299 82.5836C172.299 83.1741 172.447 83.7646 172.546 84.355C172.546 84.4042 172.546 84.4535 172.595 84.5027C172.793 84.7979 172.743 85.1423 172.743 85.4376C172.743 85.5852 172.743 85.782 172.743 85.9296C172.743 86.1265 172.743 86.3233 172.793 86.4709C172.842 86.5693 172.842 86.6677 172.842 86.8153C172.842 87.0614 172.941 87.2582 173.04 87.455C173.139 87.6518 173.188 87.7994 173.188 87.9963C173.188 88.1931 173.188 88.4391 173.287 88.636C173.336 88.7344 173.336 88.8328 173.336 88.9804C173.336 89.0788 173.385 89.1772 173.385 89.2756C173.534 89.5709 173.583 89.9153 173.632 90.2105C173.682 90.4566 173.731 90.7518 173.879 90.9978C173.929 91.1455 173.978 91.2439 173.978 91.3915C173.978 92.228 174.028 93.0645 174.028 93.901C174.028 93.9502 174.028 93.9502 174.028 93.9994C174.028 94.2454 173.929 94.4422 173.682 94.5407C173.435 94.6391 173.237 94.7375 173.04 94.8359C172.892 94.9343 172.743 94.9343 172.546 94.9835C172.398 94.9835 172.2 94.9835 172.052 94.9835C171.361 94.9835 170.62 95.0327 169.928 95.0327C169.089 95.0327 168.298 95.0819 167.459 95.0819C166.076 95.1311 164.693 95.1311 163.261 95.1803C162.52 95.2295 161.779 95.2295 161.038 95.2295C159.606 95.2787 158.173 95.2788 156.791 95.328C156.395 95.328 155.951 95.328 155.556 95.3772C155.457 95.3772 155.358 95.3772 155.21 95.328C155.013 95.2788 154.864 95.1311 154.864 94.9343C154.864 94.7375 154.864 94.4915 154.864 94.2946C154.864 93.901 154.815 93.5565 154.667 93.1629C154.617 93.0153 154.617 92.9169 154.568 92.7692C154.568 92.72 154.568 92.6708 154.568 92.6216C154.519 91.6375 154.519 90.6534 154.469 89.6693C154.469 89.374 154.469 89.0788 154.568 88.7836C154.617 88.6852 154.568 88.5868 154.568 88.4391C154.469 88.1931 154.469 87.9471 154.469 87.701C154.469 87.1598 154.469 86.6185 154.42 86.0772C154.42 85.7328 154.42 85.4376 154.37 85.0931C154.37 84.7487 154.321 84.4042 154.272 84.0598C154.222 83.863 154.222 83.6169 154.222 83.4201C154.222 82.7804 154.173 82.0916 154.173 81.4519C154.173 81.2551 154.123 81.0582 154.025 80.9106C153.975 80.8122 153.926 80.6646 153.827 80.5662C153.778 80.4678 153.728 80.3694 153.63 80.3202C153.234 80.0249 152.938 79.6313 152.592 79.2868C152.494 79.1884 152.444 79.09 152.444 78.9916C152.444 78.9424 152.395 78.8932 152.395 78.844C152.395 78.4995 152.197 78.2535 151.901 78.0075C151.802 77.9091 151.703 77.8107 151.605 77.7122C151.358 77.5154 151.16 77.2202 151.061 76.9249C150.814 76.3345 150.518 75.7932 150.271 75.2027C150.222 75.0551 150.172 74.9075 150.074 74.7599C149.925 74.4647 149.827 74.1694 149.728 73.825C149.58 73.1361 149.382 72.4472 149.135 71.8075C149.086 71.6107 149.036 71.4631 149.036 71.2663C149.036 71.1679 149.036 71.1187 148.987 71.0202C148.888 70.8234 148.888 70.6266 148.839 70.3806C148.789 70.1837 148.691 70.0361 148.641 69.8393C148.74 69.7409 148.789 69.6425 148.888 69.5441C148.987 69.4457 149.086 69.3472 149.135 69.2488C149.333 68.9044 149.58 68.5599 149.777 68.2155C149.925 68.0187 149.975 67.8219 149.975 67.625C149.975 67.5266 149.975 67.4282 150.024 67.3298C150.074 67.3298 150.172 67.3298 150.222 67.2806C150.32 67.2806 150.419 67.3298 150.469 67.4282C150.617 67.625 150.765 67.8219 151.012 67.9203C151.16 67.9695 151.308 68.1171 151.358 68.2155C151.506 68.4123 151.654 68.5599 151.852 68.6584C152 68.7568 152.148 68.8552 152.247 68.9536C152.592 69.1996 152.938 69.3964 153.333 69.5441C153.481 69.5933 153.63 69.6425 153.778 69.7409C153.877 69.7901 153.975 69.7901 154.074 69.7901C154.321 69.7901 154.469 69.7409 154.667 69.5933C154.864 69.4949 155.013 69.3472 155.161 69.1996C155.309 69.0028 155.506 68.8552 155.704 68.7076C155.852 68.6584 155.902 68.5107 155.951 68.4123C156 68.3631 156 68.2647 156.05 68.2155C156.099 68.1171 156.05 68.0679 155.951 68.0187C156.05 68.1171 156.05 68.1171 156.099 68.0679C156.247 67.9695 156.395 67.8711 156.494 67.7234C156.642 67.6742 156.741 67.625 156.84 67.4774L156.889 67.4282C156.939 67.2314 157.037 67.0346 156.988 66.7885C156.939 66.6901 156.988 66.5917 157.037 66.4933C157.087 66.3949 157.136 66.2473 157.136 66.0997C157.186 66.0997 157.235 66.0504 157.284 66.0504C157.383 66.0012 157.482 66.0012 157.581 66.0504C157.778 66.1489 158.025 66.1489 158.223 66.1981C158.371 66.2473 158.47 66.1981 158.618 66.1489C158.717 66.0997 158.816 66.0504 158.914 66.0012C159.013 65.9028 159.112 65.8044 159.26 65.7552C159.408 65.706 159.556 65.6076 159.705 65.5092C159.754 65.46 159.754 65.3616 159.705 65.3124C159.655 65.2632 159.556 65.2139 159.507 65.2632C159.507 65.2632 159.458 65.2632 159.458 65.3124C159.26 65.5092 159.013 65.6568 158.717 65.6076C158.569 65.6568 158.47 65.6568 158.322 65.706C158.173 65.7552 158.075 65.8044 157.926 65.8536C157.877 65.8536 157.828 65.9028 157.778 65.9028C157.68 65.9028 157.581 65.952 157.482 65.8536C157.383 65.8044 157.284 65.7552 157.186 65.706C157.087 65.5092 156.939 65.3616 156.741 65.2139C156.346 64.9187 156.05 64.6235 155.753 64.2298C155.704 64.1314 155.605 64.0822 155.556 63.9838C155.457 63.8854 155.358 63.787 155.259 63.6886C155.062 63.5409 154.963 63.3933 154.864 63.1965C154.815 63.1473 154.766 63.0489 154.766 62.9997C154.716 62.8521 154.617 62.7537 154.519 62.6552C154.272 62.4584 154.123 62.2124 153.975 61.9664C153.827 61.7695 153.679 61.5727 153.481 61.4251C153.185 61.1791 152.938 60.8346 152.642 60.5394C152.592 60.441 152.494 60.3426 152.444 60.2934C152.395 60.1949 152.296 60.0473 152.197 59.9489C151.852 59.6045 151.605 59.2108 151.259 58.9156C151.111 58.768 151.012 58.6204 150.963 58.4235C150.864 58.1775 150.765 57.9807 150.617 57.7839C150.518 57.6362 150.419 57.5378 150.32 57.3902C150.074 56.9966 149.876 56.6029 149.678 56.1601C149.629 56.0617 149.629 55.9632 149.58 55.8648C149.58 55.7664 149.53 55.668 149.481 55.5696C149.431 55.4712 149.431 55.3728 149.431 55.2744C149.481 55.0775 149.431 54.8315 149.382 54.6347C149.382 54.4871 149.382 54.3394 149.382 54.241C149.382 54.1426 149.431 54.0442 149.481 53.9458C149.58 53.6998 149.728 53.4537 149.876 53.2569C150.074 53.0109 150.271 52.8141 150.469 52.568C150.716 52.322 151.012 52.076 151.308 51.8792C151.555 51.7315 151.802 51.5839 152 51.4363C152.296 51.2395 152.642 51.1411 152.988 51.0919C153.086 51.0919 153.185 51.0919 153.333 51.0919C153.58 51.1411 153.827 51.1411 154.074 51.2395C154.123 51.2395 154.173 51.2887 154.222 51.2887C154.519 51.2887 154.766 51.4363 155.013 51.4855C155.062 51.5347 155.062 51.5839 155.111 51.6331C155.259 51.7315 155.358 51.8299 155.408 52.0268C155.457 52.1252 155.457 52.2236 155.556 52.322C155.753 52.568 155.852 52.8633 156.05 53.1585C156.148 53.3553 156.247 53.5522 156.395 53.6998C156.692 53.995 156.889 54.3394 157.136 54.6839C157.284 54.8807 157.433 55.0775 157.531 55.2744L157.581 55.3236C157.63 55.3236 157.68 55.3728 157.729 55.3728C157.778 55.3728 157.778 55.3236 157.828 55.2744L157.778 55.3236C157.729 55.3728 157.729 55.3728 157.729 55.4712C157.828 55.668 157.976 55.8648 158.124 56.0124C158.124 56.3077 158.272 56.5537 158.42 56.7505C158.519 56.9474 158.667 57.095 158.816 57.2918C158.865 57.3902 158.964 57.4886 158.964 57.587C159.112 57.8823 159.309 58.1283 159.507 58.3743C159.655 58.5712 159.803 58.768 159.951 58.9648C160.001 59.014 160.05 59.1124 160.05 59.1616C160.1 59.3584 160.248 59.5553 160.396 59.7029C160.594 59.9981 160.89 60.2442 161.038 60.6378C161.087 60.687 161.137 60.7854 161.186 60.8346C161.285 60.933 161.384 61.0314 161.483 61.1299C161.631 61.2775 161.631 61.4251 161.631 61.5727C161.631 61.6711 161.581 61.7695 161.581 61.9172C161.581 62.0156 161.581 62.114 161.631 62.2616C161.73 62.4584 161.68 62.606 161.631 62.8029C161.483 63.1473 161.384 63.4425 161.186 63.787C160.89 64.279 160.594 64.7711 160.05 65.0663C160.001 65.1155 159.902 65.1647 159.853 65.2139C159.803 65.2632 159.754 65.3616 159.803 65.4108C159.853 65.5092 159.951 65.5584 160.05 65.5584C160.248 65.5092 160.445 65.3616 160.594 65.2139C160.742 65.1155 160.84 65.0171 160.939 64.8695C161.186 64.5251 161.433 64.2298 161.68 63.8854C161.73 63.8362 161.779 63.7378 161.828 63.6886C161.976 63.3441 162.174 62.9997 162.273 62.6552C162.372 62.36 162.421 62.0648 162.273 61.7695C162.223 61.6711 162.223 61.5727 162.223 61.4743C162.223 61.3267 162.273 61.2283 162.273 61.0807C162.273 60.933 162.223 60.7362 162.125 60.6378C162.026 60.5394 161.927 60.441 161.927 60.2934C161.878 60.0965 161.779 59.9981 161.631 59.9489C161.532 59.8997 161.483 59.8505 161.433 59.8013C161.384 59.7029 161.334 59.5553 161.334 59.4077C161.334 59.3584 161.433 59.1616 161.483 59.1616C161.631 59.1124 161.828 59.1124 161.976 59.2108C162.125 59.3092 162.223 59.4077 162.372 59.5061C162.52 59.6537 162.668 59.7029 162.865 59.8013C163.063 59.8505 163.261 59.9489 163.508 59.9981C163.705 60.0473 163.903 60.0965 164.051 60.1949C164.298 60.3426 164.545 60.3918 164.841 60.3918C164.989 60.3918 165.137 60.3918 165.236 60.3918C165.434 60.3918 165.631 60.441 165.779 60.4902C165.977 60.5886 166.125 60.5886 166.323 60.5886C166.767 60.6378 167.212 60.687 167.607 60.687C167.804 60.687 168.051 60.687 168.249 60.6378C168.693 60.5394 169.089 60.441 169.533 60.3426C169.632 60.2934 169.731 60.2442 169.829 60.1949C169.978 60.0965 170.076 59.9981 170.225 59.8997C170.274 59.8505 170.373 59.8505 170.471 59.8505C170.62 59.8505 170.718 59.8505 170.867 59.8997C170.916 59.8997 170.965 59.9489 171.015 59.9981C171.163 60.1949 171.212 60.3918 171.212 60.5886C171.212 60.7854 171.163 60.933 171.015 60.9822C170.521 61.2283 170.076 61.5727 169.632 61.8187L169.582 61.8679C169.484 61.9172 169.385 61.9664 169.286 61.9664C168.94 62.0648 168.693 62.1632 168.496 62.5076C168.447 62.5568 168.397 62.606 168.298 62.6552C168.15 62.7537 168.051 62.8521 167.903 62.9505C167.656 63.2457 167.36 63.4917 167.064 63.6886C166.767 63.8854 166.52 64.1314 166.323 64.4267C166.273 64.5251 166.224 64.6235 166.224 64.7219C166.224 64.9679 166.125 65.1647 165.977 65.3124C165.681 65.6076 165.434 65.952 165.236 66.2965C165.088 66.5425 164.94 66.7885 164.693 67.0346C164.446 67.2806 164.298 67.5266 164.1 67.8219C164.051 67.8711 164.051 67.9203 164.001 67.9695C163.952 68.0187 163.903 68.1171 163.853 68.1663C163.557 68.3631 163.31 68.6584 163.162 68.9536C163.112 69.0028 163.063 69.1012 163.014 69.1504C162.964 69.1996 162.915 69.2488 162.816 69.298C162.569 69.5441 162.322 69.7901 162.075 70.0853C161.927 70.2822 161.828 70.479 161.68 70.6758C161.581 70.8234 161.532 70.971 161.483 71.1187C161.433 71.3647 161.384 71.6599 161.186 71.906C161.137 72.0044 161.137 72.1028 161.137 72.2012C161.186 72.3488 161.186 72.5456 161.186 72.6932C161.137 72.8901 161.137 73.0869 161.087 73.2345C161.038 73.3821 161.038 73.5789 161.038 73.7266C161.087 74.071 161.137 74.3662 161.186 74.7107C161.236 74.9075 161.285 75.1535 161.334 75.3504C161.384 75.498 161.433 75.5964 161.532 75.6948C161.581 75.7932 161.631 75.8916 161.68 75.99C161.73 76.2361 161.828 76.4329 162.026 76.6297C162.174 76.7773 162.273 76.9249 162.421 77.0234C162.47 77.0726 162.569 77.1218 162.619 77.1218C162.717 77.171 162.767 77.171 162.865 77.171C162.915 77.171 162.915 77.171 162.964 77.2202C163.063 77.2694 163.112 77.3678 163.162 77.4662C163.211 77.7122 163.112 77.9091 162.865 78.0075C162.717 78.0567 162.619 78.1059 162.47 78.1551C162.322 78.2535 162.174 78.2535 161.976 78.2535C161.779 78.2043 161.532 78.2043 161.334 78.2043C161.285 78.2043 161.236 78.2535 161.186 78.3027C161.038 78.5487 160.84 78.598 160.594 78.6964C160.495 78.6964 160.445 78.7456 160.347 78.7456C159.902 78.844 159.458 78.9424 159.013 79.1884C158.865 79.2868 158.667 79.336 158.47 79.3852L158.42 79.4345V79.4837C158.519 79.5821 158.618 79.6805 158.766 79.7297C158.964 79.7789 159.211 79.8281 159.408 79.9265C159.507 79.9757 159.606 80.0249 159.655 80.1233C159.754 80.271 159.803 80.4186 159.853 80.5662C159.853 80.7138 159.853 80.8614 159.853 80.9598C159.853 81.8455 159.902 82.682 159.902 83.5677C159.951 84.8963 159.951 86.2249 160.05 87.5534C160.05 87.7995 160.05 88.0947 160.05 88.3899C160.05 88.4883 160.05 88.5375 160.001 88.636C159.853 88.9804 159.803 89.3248 159.853 89.6693C159.853 89.8661 159.853 90.0629 159.853 90.2598C159.853 90.3582 159.853 90.4074 159.902 90.5058C159.902 90.555 159.951 90.6042 159.951 90.6534C160.001 90.7026 160.05 90.7026 160.1 90.7026C160.149 90.7026 160.198 90.6534 160.198 90.6042C160.248 90.4566 160.198 90.2597 160.248 90.1121C160.248 89.9153 160.297 89.7185 160.347 89.5709C160.347 89.5217 160.347 89.4725 160.347 89.4232C160.347 89.128 160.347 88.882 160.297 88.5867C160.248 88.2915 160.248 87.9963 160.248 87.701C160.248 87.6026 160.248 87.455 160.297 87.4058C160.445 87.0614 160.495 86.7169 160.445 86.3725C160.445 86.3233 160.445 86.2741 160.445 86.2249C160.495 85.8804 160.495 85.536 160.495 85.1423C160.495 84.9455 160.495 84.7487 160.544 84.5519C160.594 84.3058 160.594 84.0106 160.594 83.7154C160.594 83.5185 160.594 83.2725 160.594 83.0757C160.594 82.9281 160.594 82.7312 160.692 82.5836C160.742 82.436 160.791 82.3376 160.791 82.19C160.791 81.8947 160.89 81.5995 160.89 81.3043C160.89 81.009 160.89 80.763 161.038 80.517C161.087 80.4678 161.087 80.3694 161.087 80.271C161.137 80.0249 161.137 79.7789 161.137 79.5329C161.137 79.4345 161.137 79.3852 161.137 79.2868C161.137 79.2376 161.236 79.1392 161.285 79.1392C161.433 79.1392 161.532 79.1392 161.68 79.09C161.828 79.09 161.927 78.9424 162.026 78.8932C162.174 78.844 162.322 78.7948 162.52 78.7456C162.717 78.6964 162.915 78.6964 163.063 78.6472C163.31 78.5979 163.557 78.5487 163.754 78.4011C163.804 78.3519 163.903 78.3519 164.001 78.3519C164.15 78.3519 164.347 78.4011 164.495 78.3519C164.693 78.3027 164.94 78.3519 165.137 78.3027C165.384 78.2535 165.631 78.3027 165.878 78.2535C166.026 78.2043 166.224 78.2535 166.372 78.2535C166.422 78.2535 166.471 78.2535 166.52 78.2535C166.767 78.2043 167.064 78.2043 167.36 78.2043C167.656 78.2043 167.953 78.0567 168.2 77.9583C168.249 77.9583 168.249 77.8599 168.298 77.8599C168.348 77.8107 168.348 77.7615 168.298 77.7122C168.249 77.6138 168.2 77.5646 168.101 77.5646C168.051 77.5646 168.002 77.5646 167.953 77.5646C167.706 77.663 167.409 77.7122 167.162 77.7122C166.965 77.7122 166.767 77.7122 166.57 77.7122C166.471 77.7122 166.372 77.663 166.273 77.6138C166.175 77.5154 166.026 77.5154 165.878 77.5154C165.779 77.5154 165.681 77.5154 165.533 77.5154C164.989 77.5154 164.989 77.5154 164.446 77.2694C164.347 77.2202 164.248 77.171 164.15 77.0726C164.051 76.9742 163.903 76.925 163.804 76.8757C163.557 76.7773 163.359 76.6789 163.112 76.5805C162.964 76.5313 162.816 76.4329 162.717 76.2853C162.372 75.99 162.174 75.5964 161.976 75.2027C161.976 75.2027 161.976 75.1535 161.976 75.1043C161.927 74.8583 161.878 74.6123 161.828 74.3662C161.779 74.1202 161.779 73.825 161.68 73.5789C161.532 72.9885 161.532 72.7917 161.631 72.152C161.631 72.1028 161.631 72.0536 161.68 72.0044C161.73 71.9059 161.73 71.8075 161.779 71.7091C161.927 71.4139 162.125 71.1187 162.372 70.8234C162.619 70.5282 162.865 70.1837 163.063 69.7901C163.162 69.5933 163.31 69.3965 163.409 69.2488C163.458 69.1996 163.508 69.1012 163.557 69.052C163.754 68.9536 163.804 68.806 163.952 68.6584C164.248 68.2155 164.495 67.7727 164.841 67.379C164.94 67.2806 164.989 67.2314 165.039 67.133C165.286 66.6901 165.582 66.3457 165.878 65.952C166.125 65.6076 166.372 65.3124 166.668 65.0171C166.866 64.8203 167.064 64.5743 167.261 64.3282C167.508 64.1806 167.656 63.8854 167.854 63.6886C167.903 63.5902 168.002 63.541 168.101 63.4425C168.2 63.3441 168.348 63.2949 168.397 63.1965C168.496 63.0981 168.545 62.9505 168.644 62.8521C168.743 62.7537 168.842 62.6552 168.94 62.606C169.138 62.4584 169.385 62.36 169.582 62.2616C169.829 62.1632 170.027 62.114 170.274 62.0156C170.471 61.9664 170.62 61.8679 170.768 61.7203C170.916 61.5727 171.114 61.5235 171.262 61.4743C171.706 61.4251 172.101 61.3267 172.546 61.3759C172.595 61.3759 172.645 61.3267 172.645 61.2775C172.645 61.2283 172.645 61.2283 172.645 61.1791C172.595 61.0314 172.496 60.933 172.398 60.8346C172.2 60.6378 172.003 60.3918 171.854 60.0965C171.756 59.9489 171.706 59.8013 171.607 59.6537C171.459 59.4569 171.361 59.2108 171.311 59.014C171.262 58.8172 171.212 58.6696 171.212 58.4727C171.212 58.2759 171.212 58.0299 171.163 57.8331C171.163 57.7839 171.114 57.7347 171.064 57.7347C171.064 57.7347 171.015 57.7347 171.015 57.7839C170.965 57.8331 170.916 57.8331 170.916 57.8823C170.274 58.7188 170.274 58.7188 169.187 59.3584C169.138 59.4077 169.089 59.4077 169.039 59.4569C168.842 59.5553 168.644 59.6537 168.397 59.6537C168.298 59.6537 168.249 59.7029 168.15 59.7029C168.002 59.7521 167.903 59.8013 167.755 59.8013C167.459 59.8013 167.212 59.8013 166.915 59.8013C166.817 59.8013 166.718 59.8013 166.619 59.7521C166.471 59.7029 166.323 59.6537 166.125 59.6537C165.928 59.6537 165.73 59.6537 165.533 59.6537C165.434 59.6537 165.286 59.6537 165.187 59.6045C164.89 59.5061 164.545 59.4569 164.248 59.3092C164.15 59.26 164.001 59.2108 163.853 59.1616C163.606 59.1124 163.359 59.014 163.162 58.9156C162.865 58.7188 162.569 58.5219 162.273 58.3251C162.174 58.2267 162.075 58.1775 161.976 58.0791C161.828 57.9315 161.73 57.7839 161.631 57.6362C161.581 57.5378 161.532 57.4394 161.483 57.341C161.433 57.2426 161.433 57.1934 161.384 57.095C161.334 56.8982 161.285 56.6521 161.236 56.4553C161.137 56.1601 161.137 55.8648 161.038 55.5696C161.038 55.5204 161.038 55.5204 161.038 55.4712C161.038 55.3236 161.038 55.1267 161.038 54.9791C161.038 54.8807 161.087 54.7823 161.186 54.6839C161.236 54.6347 161.334 54.5855 161.384 54.5363C161.532 54.3887 161.73 54.241 161.878 54.1426C161.927 54.0934 161.927 54.0442 161.927 53.995C161.927 53.9458 161.878 53.9458 161.828 53.8966C161.878 53.9458 161.878 53.995 161.927 54.0442C162.026 54.0442 162.075 54.0442 162.174 53.995C162.223 53.9458 162.273 53.9458 162.322 53.8966C162.421 53.7982 162.569 53.749 162.668 53.749C162.865 53.749 163.014 53.6506 163.211 53.5522C163.409 53.4045 163.606 53.2569 163.804 53.1585C163.903 53.1093 164.001 53.0601 164.1 53.1093C164.199 53.1093 164.248 53.1093 164.298 53.0109C164.545 52.9125 164.792 52.8141 165.039 52.7157C165.631 52.4696 165.928 52.322 166.619 51.9284C166.668 51.9284 166.718 51.9284 166.767 51.9284C166.965 51.8792 167.064 51.7315 167.261 51.6331C167.36 51.5347 167.508 51.4855 167.656 51.4855C167.755 51.4855 167.854 51.4363 167.953 51.3871C168.249 51.1903 168.595 51.0427 168.99 50.895C169.484 50.6982 169.978 50.5998 170.422 50.403C170.718 50.3538 170.965 50.2062 171.212 50.0585C171.361 49.9601 171.558 49.8617 171.706 49.7633C172.299 49.5173 172.496 49.4681 172.645 49.3696ZM161.631 88.5375C161.581 89.0788 161.581 89.5217 161.581 89.9645C161.581 90.1613 161.581 90.4074 161.532 90.6042C161.483 90.9486 161.483 91.2931 161.483 91.6375C161.483 91.9328 161.631 92.228 161.878 92.3756L161.927 92.4248C161.976 92.474 162.125 92.4248 162.125 92.3264C162.223 91.5883 162.223 90.8502 162.273 90.1121C162.273 89.4725 162.322 88.8328 162.372 88.1439C162.421 87.4058 162.47 86.6677 162.47 85.9296C162.47 85.3392 162.52 84.7979 162.52 84.2074C162.52 83.7154 162.569 83.2233 162.569 82.7312C162.619 82.0916 162.619 81.5011 162.619 80.8614C162.619 80.763 162.619 80.7138 162.619 80.6154C162.619 80.5662 162.569 80.517 162.52 80.4678C162.421 80.4186 162.322 80.4186 162.223 80.3694C162.125 80.3202 162.026 80.2217 161.976 80.1725C161.927 80.1233 161.927 80.0249 161.976 79.9265C161.976 79.8773 162.026 79.8281 162.026 79.7789C162.026 79.7297 161.976 79.6805 161.976 79.6313C161.927 79.6313 161.878 79.6313 161.828 79.6805C161.73 79.7789 161.779 79.8773 161.73 79.9757C161.631 80.2217 161.631 80.4678 161.631 80.7138C161.68 81.3043 161.73 81.8947 161.73 82.4852C161.73 82.8789 161.73 83.2233 161.73 83.617C161.73 84.109 161.73 84.6503 161.73 85.1423C161.73 85.3884 161.73 85.6344 161.68 85.8804C161.631 86.1264 161.631 86.4217 161.581 86.6677C161.532 86.9137 161.532 87.1598 161.532 87.4058C161.631 87.9471 161.631 88.2915 161.631 88.5375ZM156.494 82.0424C156.544 82.0424 156.544 82.0424 156.593 82.0424C156.84 81.944 157.136 81.944 157.383 81.8947C157.482 81.8947 157.531 81.8455 157.63 81.8455C157.828 81.7471 158.025 81.6979 158.223 81.5995C158.42 81.5011 158.569 81.3535 158.766 81.2059C158.816 81.1567 158.816 81.1075 158.865 81.0582C158.914 81.009 158.914 80.9598 158.865 80.9106C158.816 80.8614 158.766 80.8614 158.717 80.8614C158.371 80.9598 158.025 81.009 157.729 81.2059C157.63 81.2551 157.531 81.3043 157.433 81.3043C157.235 81.3535 156.988 81.4027 156.791 81.4519C156.494 81.5503 156.198 81.5503 155.902 81.5011C155.704 81.4519 155.506 81.4519 155.358 81.4027C155.309 81.4027 155.259 81.4027 155.21 81.4027C155.21 81.4027 155.161 81.4027 155.161 81.4519C155.062 81.5995 155.161 81.7963 155.309 81.8455C155.704 81.9932 156.099 81.9932 156.494 82.0424C156.494 82.0424 156.445 82.0424 156.494 82.0424Z" fill="white"/>
<path d="M150.221 67.3288C150.221 67.4272 150.172 67.5256 150.172 67.624C150.172 67.8701 150.073 68.0669 149.974 68.2145C149.727 68.5589 149.53 68.9034 149.332 69.2478C149.283 69.3462 149.184 69.4447 149.085 69.5431C148.986 69.6415 148.937 69.7399 148.838 69.8383C148.74 69.9367 148.641 69.9859 148.542 70.1335C148.443 70.2812 148.344 70.3796 148.196 70.478C147.999 70.6256 147.801 70.7732 147.653 70.97C147.357 71.3145 147.011 71.6097 146.616 71.9049C146.369 72.1018 146.122 72.2986 145.875 72.5446C145.579 72.7907 145.332 73.0859 144.986 73.2827C144.937 73.3319 144.838 73.3811 144.788 73.4303C144.64 73.578 144.492 73.7256 144.294 73.8732C144.146 73.9716 143.998 74.07 143.801 74.1684C143.554 74.316 143.307 74.5129 143.06 74.6605C142.714 74.9557 142.319 75.2509 142.023 75.5954C141.677 75.9398 141.331 76.2843 140.985 76.6779C140.837 76.8255 140.738 76.9732 140.64 77.17C140.343 77.7112 140.047 78.3017 139.849 78.843C139.8 78.9906 139.701 79.089 139.652 79.1874C139.553 79.3842 139.504 79.5811 139.405 79.7779C139.355 79.9747 139.306 80.1223 139.207 80.3192C139.158 80.4176 139.109 80.516 139.059 80.6144C139.01 80.8112 138.911 81.008 138.862 81.2049C138.763 81.4017 138.664 81.5985 138.565 81.7953C138.516 81.8445 138.516 81.8937 138.516 81.9429C138.318 82.5334 138.071 83.1239 137.874 83.7144C137.824 83.8128 137.923 83.9604 138.022 83.9604C138.071 83.9604 138.121 83.9604 138.17 83.9604C138.318 83.9112 138.466 83.9112 138.664 84.0096C138.812 84.0588 138.911 84.108 139.059 84.108C139.454 84.2556 139.899 84.3048 140.343 84.3048C140.59 84.3048 140.837 84.3048 141.084 84.4032C141.331 84.5017 141.578 84.5509 141.874 84.6001C141.973 84.6001 142.072 84.6493 142.171 84.6985C142.269 84.7477 142.368 84.7477 142.467 84.7477C142.714 84.7477 142.961 84.8461 143.158 84.8953C143.356 84.9445 143.504 85.0429 143.652 85.1905C143.801 85.289 143.998 85.3874 144.146 85.4858C144.344 85.6334 144.492 85.8302 144.64 86.027C144.986 86.4207 145.183 86.9127 145.381 87.4048C145.48 87.7 145.579 88.0445 145.579 88.3397C145.628 88.881 145.579 89.4222 145.529 89.9635C145.48 90.4556 145.43 90.9476 145.381 91.4397C145.381 91.6857 145.332 91.9318 145.183 92.1286C145.085 92.3254 145.085 92.473 144.986 92.6698C144.937 92.8667 144.838 93.0143 144.838 93.2111C144.838 93.3095 144.838 93.3587 144.788 93.4571C144.69 93.7032 144.69 93.9984 144.64 94.2444C144.64 94.392 144.591 94.5889 144.541 94.7365C144.492 94.8841 144.393 95.0317 144.344 95.1793C144.245 95.4254 144.146 95.6714 144.146 95.9666C144.146 96.1635 144.146 96.4095 144.048 96.6063C144.048 96.6555 144.048 96.6555 144.048 96.7047C143.998 96.9015 143.998 97.1476 143.949 97.3444C143.899 97.5412 143.85 97.6888 143.801 97.8857C143.801 98.1317 143.751 98.3777 143.652 98.6238C143.603 98.7222 143.603 98.8206 143.603 98.9682C143.603 99.3126 143.504 99.6079 143.356 99.9031C143.307 99.9523 143.307 100.051 143.257 100.149C143.208 100.494 143.109 100.789 142.912 101.084C142.813 101.232 142.813 101.428 142.714 101.625C142.615 101.822 142.615 101.97 142.566 102.167C142.566 102.265 142.516 102.363 142.467 102.462C142.418 102.609 142.368 102.708 142.368 102.855C142.368 103.101 142.319 103.348 142.22 103.594C142.121 103.79 142.072 103.987 142.023 104.233C142.023 104.332 141.973 104.43 141.924 104.528C141.825 104.774 141.726 105.021 141.677 105.316C141.578 105.562 141.529 105.759 141.479 106.005C141.43 106.3 141.331 106.595 141.183 106.841C141.084 106.94 141.035 107.087 140.985 107.186C140.936 107.382 140.837 107.53 140.738 107.727C140.64 107.874 140.59 108.022 140.541 108.17C140.491 108.317 140.442 108.416 140.393 108.563C140.294 108.76 140.096 108.957 139.998 109.203C139.899 109.4 139.8 109.597 139.652 109.744C139.553 109.843 139.553 109.99 139.454 110.089C139.355 110.286 139.257 110.482 139.109 110.63C138.96 110.778 138.862 110.974 138.713 111.171C138.615 111.319 138.516 111.466 138.417 111.565C138.071 111.909 137.775 112.303 137.528 112.746C137.331 113.041 137.084 113.336 136.787 113.484C136.59 113.582 136.392 113.73 136.244 113.878C136.145 113.976 136.046 114.025 135.898 114.124C135.651 114.222 135.404 114.37 135.207 114.566C135.009 114.714 134.812 114.763 134.614 114.862C134.466 114.911 134.318 114.96 134.17 115.059C134.071 115.108 133.923 115.206 133.774 115.206C133.577 115.255 133.429 115.354 133.231 115.452C132.984 115.6 132.688 115.698 132.392 115.747C132.243 115.747 132.095 115.797 131.898 115.846C131.601 115.944 131.256 115.993 130.91 115.944C130.811 115.944 130.712 115.895 130.564 115.944C130.268 115.993 130.021 115.993 129.724 115.944C129.626 115.944 129.527 115.944 129.379 115.944C129.181 115.993 128.984 115.993 128.786 115.944C128.737 115.944 128.687 115.944 128.638 115.944C128.342 115.944 128.095 116.043 127.798 115.944C127.551 115.895 127.255 115.895 126.959 115.895C126.662 115.895 126.366 115.846 126.119 115.649C125.823 115.501 125.526 115.354 125.23 115.206C125.131 115.157 124.983 115.059 124.884 115.009C124.687 114.911 124.44 114.812 124.193 114.714C123.995 114.616 123.847 114.468 123.65 114.37C123.403 114.271 123.205 114.124 123.007 113.976C122.909 113.878 122.761 113.828 122.662 113.779C122.267 113.632 121.97 113.336 121.773 112.992C121.674 112.795 121.526 112.647 121.378 112.451C121.229 112.254 121.081 112.057 120.983 111.811C120.884 111.565 120.785 111.368 120.686 111.171C120.538 110.925 120.489 110.679 120.439 110.384C120.439 110.187 120.39 109.941 120.291 109.744C120.242 109.597 120.242 109.498 120.242 109.351C120.242 109.203 120.242 109.055 120.192 108.957C120.093 108.711 120.044 108.465 120.093 108.219C120.143 107.727 120.044 107.235 120.093 106.743C120.093 106.546 120.093 106.349 119.995 106.201C119.945 106.103 119.945 106.054 119.896 105.955C119.797 105.66 119.748 105.316 119.797 104.971C119.797 104.824 119.797 104.627 119.797 104.479C119.797 104.332 119.797 104.135 119.797 103.987C119.797 103.79 119.797 103.594 119.797 103.397C119.797 103.249 119.797 103.101 119.797 103.003C119.847 102.806 119.797 102.56 119.797 102.363C119.797 102.117 119.797 101.871 119.896 101.625C119.995 101.379 120.044 101.084 120.093 100.838C120.093 100.74 120.143 100.69 120.093 100.592C120.044 100.149 120.143 99.7063 120.093 99.2634C120.093 98.9682 120.093 98.7222 120.192 98.4761C120.242 98.3777 120.242 98.2793 120.242 98.1809C120.242 97.9841 120.291 97.7381 120.39 97.5412C120.489 97.2952 120.538 97.0984 120.587 96.8523C120.587 96.7539 120.637 96.7047 120.637 96.6063C120.686 96.4587 120.736 96.3603 120.736 96.2127C120.736 96.0158 120.785 95.7698 120.884 95.573C120.884 95.5238 120.933 95.4746 120.933 95.4254C120.933 95.0809 121.032 94.7365 121.131 94.392C121.18 94.2936 121.18 94.1952 121.18 94.0968C121.229 93.8016 121.279 93.5555 121.427 93.3095C121.526 93.1127 121.526 92.8175 121.625 92.6206C121.723 92.4238 121.822 92.227 121.921 92.0302C121.97 91.8333 122.069 91.6365 122.168 91.4397C122.267 91.1937 122.316 90.9968 122.415 90.7508C122.464 90.6524 122.464 90.6032 122.563 90.554C122.662 90.554 122.761 90.554 122.909 90.554C122.909 90.6032 122.909 90.6032 122.909 90.6524C122.761 91.2429 122.514 91.8333 122.415 92.473C122.217 92.9651 122.118 93.5063 121.921 94.0476C121.872 94.1952 121.822 94.2936 121.822 94.4413C121.723 94.8349 121.723 95.1793 121.625 95.573C121.526 95.9666 121.476 96.3603 121.378 96.7539C121.279 97.1476 121.229 97.5412 121.229 97.9841C121.229 98.2301 121.18 98.4761 121.131 98.7222C121.131 98.8206 121.081 98.919 121.081 99.0666C121.081 99.4603 121.032 99.9031 121.032 100.297C121.032 100.494 121.032 100.74 120.983 100.936C120.983 101.035 120.983 101.133 120.933 101.281C120.933 101.822 121.032 102.314 120.983 102.806C120.983 102.954 121.032 103.151 121.032 103.298C121.032 103.348 121.032 103.397 121.081 103.446C121.131 103.643 121.131 103.889 121.18 104.086C121.229 104.381 121.279 104.676 121.328 104.971C121.476 105.66 121.723 106.3 122.069 106.94C122.069 106.989 122.118 107.038 122.168 107.087C122.464 107.53 122.711 108.022 122.958 108.514C123.106 108.809 123.254 109.006 123.501 109.252C123.798 109.498 124.094 109.744 124.44 109.941C124.687 110.089 124.983 110.187 125.279 110.286C125.971 110.482 126.662 110.63 127.354 110.679C128.144 110.728 128.095 110.728 128.835 110.63C129.28 110.581 129.675 110.482 130.07 110.286C130.169 110.236 130.218 110.236 130.317 110.187C130.811 109.99 131.206 109.695 131.552 109.301C131.848 108.957 132.046 108.563 132.194 108.17C132.243 107.973 132.342 107.776 132.392 107.53C132.589 106.94 132.688 106.398 132.737 105.759C132.737 105.365 132.737 104.922 132.737 104.528C132.737 103.692 132.589 102.905 132.342 102.117C132.194 101.724 132.046 101.281 131.898 100.887C131.848 100.74 131.799 100.641 131.7 100.543C131.503 100.248 131.256 99.9031 131.009 99.6571C130.762 99.411 130.515 99.165 130.169 99.0174C130.12 98.9682 130.021 98.919 129.971 98.919C129.724 98.7714 129.478 98.673 129.231 98.6238C128.984 98.5745 128.737 98.5253 128.49 98.4761C128.391 98.4761 128.342 98.4269 128.243 98.3777C127.996 98.2301 127.749 98.1317 127.502 98.0825C127.403 98.0825 127.354 98.0333 127.255 97.9841C127.107 97.8857 126.909 97.7873 126.761 97.738C126.564 97.6396 126.317 97.6888 126.119 97.6888C126.02 97.6888 125.921 97.6396 125.823 97.5904C125.625 97.4428 125.428 97.2952 125.23 97.1476C125.131 97.0492 125.032 97.0492 124.934 97C124.835 97 124.786 96.9508 124.687 96.9015C124.539 96.8031 124.44 96.7047 124.292 96.5571C124.045 96.3111 123.847 96.065 123.748 95.7698C123.501 95.2285 123.403 94.6873 123.501 94.0968C123.551 93.7032 123.65 93.3587 123.65 92.9651C123.65 92.8175 123.699 92.719 123.699 92.5714C123.748 92.1778 123.798 91.7841 123.946 91.3905C124.094 90.9968 124.094 90.554 124.242 90.1111C124.39 89.6191 124.489 89.1762 124.687 88.7334C124.786 88.5857 124.835 88.3889 124.884 88.1921C125.032 87.7493 125.181 87.3064 125.378 86.9127C125.428 86.8143 125.477 86.6667 125.526 86.5191C125.526 86.4207 125.526 86.3715 125.526 86.2731C125.526 86.1747 125.428 86.1255 125.378 86.1255C125.329 86.1255 125.181 86.1255 125.131 86.1747C125.082 86.2239 125.032 86.2731 125.032 86.3223C124.884 86.6175 124.687 86.9127 124.489 87.2572C124.39 87.4048 124.292 87.5032 124.143 87.6016C124.045 87.6016 123.995 87.6016 123.896 87.5524C123.896 87.5032 123.896 87.454 123.896 87.4048C123.995 87.1588 124.143 86.9127 124.242 86.6667C124.292 86.4207 124.44 86.1747 124.539 85.9286C124.588 85.8302 124.637 85.7318 124.687 85.6334C125.082 84.9937 125.576 84.4525 126.07 83.9604C126.465 83.616 126.86 83.3207 127.354 83.1239C127.749 82.9763 128.193 82.8779 128.638 82.8287C128.786 82.8287 128.934 82.8287 129.033 82.8779C129.231 82.9763 129.379 82.9763 129.576 83.0255C130.07 83.0255 130.564 83.1239 131.058 83.1239C131.206 83.1239 131.404 83.1239 131.552 83.1731C131.799 83.2715 132.095 83.2715 132.342 83.3207C132.638 83.3699 132.984 83.4191 133.33 83.4683C133.478 83.4683 133.626 83.5175 133.824 83.616C133.972 83.6652 134.071 83.7144 134.17 83.862C134.268 83.9604 134.367 84.0588 134.417 84.1572C134.466 84.2064 134.565 84.2064 134.614 84.1572C134.663 84.108 134.663 84.0588 134.713 84.0096C134.812 83.7636 134.861 83.5667 134.96 83.3207C135.009 83.2223 135.059 83.1239 135.108 83.0255C135.157 83.0255 135.256 83.0255 135.306 83.0255C135.306 83.2223 135.256 83.4683 135.207 83.6652C135.157 83.9112 135.059 84.1572 135.009 84.354C135.009 84.4032 135.009 84.4525 135.059 84.5017C135.108 84.6493 135.256 84.6985 135.355 84.6985C135.454 84.6985 135.552 84.6493 135.651 84.5509C135.701 84.5017 135.75 84.4032 135.75 84.354C135.898 83.9604 135.997 83.5667 136.046 83.1731C136.145 82.7794 136.293 82.3858 136.491 82.0414C136.59 81.8937 136.688 81.6969 136.738 81.5493C136.985 81.008 137.331 80.516 137.528 79.9255C137.726 79.5811 137.874 79.2366 138.022 78.8922C138.22 78.3509 138.516 77.8097 138.763 77.2684C138.862 77.0224 139.01 76.7763 139.207 76.5795C139.553 76.1367 139.998 75.743 140.294 75.251C140.343 75.1525 140.442 75.1033 140.541 75.0049C141.084 74.4637 141.726 73.9224 142.319 73.4303C142.418 73.3319 142.516 73.2827 142.665 73.1843C142.961 72.9875 143.257 72.7907 143.554 72.5938C143.899 72.3478 144.245 72.0526 144.541 71.7573C144.887 71.4129 145.233 71.1177 145.529 70.8224C145.727 70.6256 145.974 70.4288 146.221 70.2319C146.616 69.9859 146.912 69.6415 147.208 69.2478C147.307 69.1002 147.455 68.9526 147.554 68.805C147.604 68.7066 147.653 68.6082 147.702 68.5097C147.851 68.3129 148.048 68.1161 148.196 67.9193C148.246 67.8209 148.344 67.7224 148.344 67.6732C148.443 67.4272 148.394 67.0336 147.999 67.0336C147.9 67.0336 147.851 67.0336 147.752 67.0336C147.752 66.9352 147.752 66.8859 147.851 66.8367C147.949 66.7875 148.048 66.7383 148.147 66.6891C148.344 66.6891 148.542 66.6399 148.69 66.6399C148.789 66.6399 148.838 66.5907 148.888 66.5415C148.937 66.6891 149.085 66.7383 149.184 66.8367C149.382 67.0828 149.53 67.2796 149.727 67.5256C150.172 67.2304 150.172 67.2796 150.221 67.3288ZM134.96 93.1619C135.059 93.1619 135.157 93.1619 135.256 93.1619C135.256 93.2111 135.256 93.2603 135.256 93.3095C135.157 93.5555 135.108 93.7524 135.009 93.9984C134.96 94.0968 134.91 94.1952 134.812 94.2444C134.318 94.5397 133.873 94.7365 133.281 94.7857C133.083 94.8349 132.935 94.9825 132.885 95.1793C132.836 95.327 132.836 95.5238 132.787 95.6714C132.688 95.9666 132.589 96.2127 132.441 96.5079C132.392 96.6555 132.392 96.7539 132.49 96.9015C132.589 97.0984 132.737 97.1968 132.787 97.3936C132.885 97.5904 133.034 97.6888 133.182 97.738C133.281 97.7873 133.379 97.8365 133.478 97.8365C133.923 97.9349 134.318 98.0825 134.762 98.1809C135.207 98.2793 135.602 98.4269 135.997 98.5253C136.145 98.5746 136.244 98.5745 136.392 98.6238C136.688 98.7222 137.034 98.7714 137.331 98.919C137.429 98.9682 137.528 98.9682 137.627 99.0174C137.775 99.0666 137.923 99.0666 138.022 99.1158C138.318 99.2142 138.615 99.2142 138.911 99.2142C139.207 99.165 139.504 99.165 139.8 99.0666C140.195 98.9682 140.541 98.8206 140.837 98.5745C141.183 98.2301 141.529 97.8857 141.776 97.4428C142.072 96.9015 142.319 96.3111 142.516 95.7206C142.665 95.327 142.813 94.8841 143.01 94.5397C143.06 94.4905 143.109 94.392 143.109 94.3428C143.208 94.0968 143.307 93.9 143.307 93.654C143.307 93.4571 143.356 93.2603 143.405 93.1127C143.504 92.8175 143.603 92.5222 143.702 92.2762C143.801 91.8825 143.899 91.4889 143.949 91.0952C143.998 90.7508 143.998 90.4064 143.998 90.0127C143.998 89.3238 143.801 88.6842 143.405 88.0937C143.109 87.6016 142.714 87.2572 142.269 86.962C142.121 86.8635 141.924 86.7651 141.726 86.7159C141.529 86.6667 141.331 86.6667 141.183 86.6175C140.985 86.5683 140.837 86.5191 140.64 86.4207C140.541 86.3715 140.393 86.3223 140.294 86.2239C139.948 86.0763 139.652 85.9778 139.257 85.9286C138.911 85.8794 138.565 85.8302 138.22 85.781C138.022 85.781 137.824 85.7318 137.676 85.6334C137.577 85.5842 137.429 85.535 137.281 85.4858C137.034 85.3874 136.738 85.3382 136.491 85.4858C136.392 85.535 136.244 85.5842 136.096 85.6334C135.799 85.781 135.701 86.1255 135.898 86.4207C135.997 86.5191 136.096 86.6175 136.145 86.7159C136.293 86.962 136.441 87.208 136.441 87.454C136.343 87.454 136.244 87.454 136.145 87.5032C135.997 87.3064 135.799 87.0604 135.552 87.0112C135.454 86.962 135.355 86.9127 135.256 86.8635C134.96 86.7159 134.663 86.6667 134.318 86.8143C134.12 86.9128 133.923 87.0112 133.725 87.0112C133.725 86.9127 133.676 86.7651 133.676 86.6667C133.725 86.5191 133.873 86.4699 133.972 86.4207C134.268 86.3223 134.515 86.2239 134.861 86.1747C135.059 86.1255 135.256 85.8302 135.256 85.6334C135.256 85.3874 135.059 85.1413 134.812 85.0921C134.762 85.0921 134.713 85.0921 134.663 85.0921C134.565 85.0921 134.466 85.0429 134.367 84.9937C134.268 84.9445 134.219 84.8461 134.12 84.7969C133.873 84.6985 133.626 84.6001 133.33 84.5509C132.836 84.5017 132.293 84.354 131.848 84.1572C131.601 84.0588 131.404 84.0096 131.157 83.9604C131.009 83.9112 130.811 83.9112 130.663 83.9112C130.416 83.9112 130.169 83.9112 129.922 83.9112C129.675 83.9112 129.428 83.9604 129.181 83.9604C129.082 83.9604 128.984 84.0096 128.885 84.0588C128.342 84.4032 127.897 84.7969 127.502 85.289C127.354 85.4366 127.255 85.6334 127.107 85.8302C126.86 86.3223 126.564 86.8143 126.366 87.3556C126.218 87.7 126.07 88.0445 126.07 88.4381C126.07 88.5365 126.07 88.5858 126.02 88.6842C125.872 89.0778 125.773 89.4715 125.675 89.8651C125.576 90.1111 125.526 90.4064 125.428 90.6524C125.329 90.8 125.279 90.9476 125.279 91.0952C125.23 91.2921 125.181 91.4889 125.082 91.6365C124.983 91.8333 124.983 91.981 124.934 92.1778C124.934 92.3254 124.884 92.5222 124.835 92.6698C124.835 92.7682 124.786 92.8667 124.786 93.0143C124.736 93.654 124.835 94.2444 124.983 94.8841C125.032 95.0317 125.082 95.1793 125.131 95.327C125.181 95.4746 125.279 95.573 125.329 95.6714C125.477 95.819 125.625 95.9174 125.773 96.0158C126.267 96.2619 126.81 96.5571 127.354 96.7047C127.551 96.7539 127.7 96.8031 127.897 96.8031C128.44 96.8031 128.934 96.8523 129.428 97C129.823 97.0984 130.169 97.1476 130.564 97C130.614 97 130.663 97 130.712 97C130.91 97 131.058 96.9508 131.256 96.8031C131.453 96.6555 131.651 96.4587 131.749 96.1635C131.848 95.8682 131.996 95.6222 132.095 95.327C132.194 95.1301 132.145 94.8841 132.095 94.6873C132.095 94.6381 132.046 94.5889 131.996 94.5397C131.898 94.4905 131.799 94.392 131.749 94.3428C131.404 94.0968 131.157 93.8508 131.107 93.4571C130.959 93.1619 130.959 92.8667 130.959 92.5714C130.959 92.3746 131.058 92.1778 131.157 92.0302C131.256 92.0302 131.354 92.0302 131.453 92.0302C131.404 92.2762 131.404 92.5222 131.354 92.7682C131.305 93.2111 131.503 93.6047 131.848 93.9C131.996 93.9984 132.145 94.0968 132.342 94.146C132.49 94.1952 132.638 94.2444 132.836 94.2444C133.182 94.2936 133.527 94.3428 133.873 94.1952C133.972 94.146 134.071 94.146 134.17 94.146C134.268 94.146 134.367 94.0476 134.466 93.9984C134.663 93.8508 134.812 93.7032 134.861 93.5063C134.812 93.4079 134.861 93.2603 134.96 93.1619Z" fill="#CC3030"/>
<path d="M132.294 47.6958C132.294 51.6815 132.294 55.618 132.294 59.6037C132.294 59.8005 132.294 60.0465 132.294 60.2433C132.343 60.5386 132.195 60.7846 131.948 60.9322C131.849 60.9814 131.75 61.0798 131.652 61.0798C131.158 61.0798 130.664 61.0798 130.17 61.0798C130.071 61.0798 129.972 61.0306 129.923 60.883C129.874 60.8338 129.874 60.7354 129.824 60.637C128.046 55.5688 126.318 50.4514 124.54 45.3831C124.391 45.1863 124.441 44.8911 124.243 44.6943H124.194C124.144 44.6943 124.095 44.6943 124.095 44.6943C124.095 44.8419 124.095 45.0387 124.095 45.1863C124.095 47.0069 124.095 48.8276 124.095 50.6482C124.095 53.6497 124.095 56.7005 124.095 59.7021C124.095 59.9481 124.095 60.1941 124.095 60.4401C124.095 60.5386 124.046 60.5878 123.996 60.6862C123.897 60.7846 123.799 60.883 123.7 60.9814C123.651 61.0306 123.601 61.0306 123.552 61.0306C123.502 61.0306 123.453 61.0306 123.404 61.0306C122.86 61.0306 122.366 61.0306 121.823 61.0306C121.626 61.0306 121.477 60.9322 121.329 60.7846C121.28 60.7354 121.23 60.6862 121.23 60.6862C121.181 60.637 121.132 60.5386 121.132 60.4894C121.132 60.2925 121.132 60.0957 121.132 59.8989C121.132 58.5211 121.132 57.1434 121.132 55.7164C121.132 48.9752 121.132 42.2832 121.132 35.542C121.132 35.3451 121.132 35.0991 121.132 34.9023C121.082 34.607 121.23 34.361 121.477 34.2134C121.576 34.1642 121.675 34.115 121.774 34.115C122.317 34.115 122.811 34.115 123.354 34.115C123.404 34.115 123.404 34.115 123.453 34.115C123.552 34.115 123.601 34.1642 123.651 34.2626C123.799 34.7055 123.996 35.1483 124.144 35.542C125.725 40.1673 127.355 44.7927 128.935 49.418C128.985 49.6149 129.083 49.7625 129.133 49.9593C129.182 49.9593 129.232 50.0085 129.281 50.0085L129.33 49.9593L129.38 49.9101C129.38 49.6149 129.38 49.3688 129.38 49.0736C129.38 44.5466 129.38 40.0197 129.38 35.542C129.38 35.2959 129.38 35.0499 129.38 34.8039C129.38 34.607 129.429 34.5086 129.577 34.361C129.627 34.3118 129.676 34.2626 129.775 34.2134C129.824 34.1642 129.874 34.1642 129.923 34.1642C130.022 34.1642 130.071 34.1642 130.17 34.1642C130.614 34.1642 131.108 34.1642 131.553 34.1642C131.849 34.1642 132.047 34.2626 132.244 34.5086C132.294 34.607 132.343 34.7055 132.343 34.8039C132.343 35.0499 132.343 35.2959 132.343 35.542C132.294 39.5768 132.294 43.6117 132.294 47.6958Z" fill="white"/>
<path d="M67.592 76.8264C67.592 80.3693 67.592 83.9613 67.592 87.5041C67.592 87.7994 67.592 88.0454 67.592 88.3406C67.4932 89.2263 66.9993 89.866 66.1597 90.1612C66.0609 90.2104 66.0115 90.2104 65.9128 90.2104C65.6658 90.2596 65.4189 90.2597 65.1719 90.2597C64.7274 90.2597 64.2829 90.2597 63.8384 90.2597C62.1592 90.2597 60.4305 90.2597 58.7513 90.2597C58.4549 90.2597 58.208 90.2596 57.9116 90.2104C57.5659 90.1612 57.2696 90.0136 57.0226 89.8168C56.6275 89.5216 56.3806 89.1279 56.2324 88.6851C56.183 88.5867 56.183 88.5374 56.183 88.439C56.183 88.2914 56.1336 88.0946 56.1336 87.947C56.1336 87.7502 56.1336 87.5533 56.1336 87.3565C56.1336 80.2708 56.1336 73.136 56.1336 66.0503C56.1336 65.7551 56.1336 65.5091 56.1336 65.2138C56.2324 64.3281 56.7263 63.6885 57.5165 63.344C57.6153 63.2948 57.6647 63.2948 57.7635 63.2948C58.0598 63.2456 58.3561 63.2456 58.6525 63.2456C59.986 63.2456 61.3195 63.2456 62.653 63.2456C63.3939 63.2456 64.1347 63.2456 64.8756 63.2456C65.0731 63.2456 65.3201 63.2456 65.5177 63.2456C66.3573 63.344 66.9006 63.7869 67.2463 64.525C67.3451 64.771 67.4439 65.017 67.4439 65.3123C67.4439 65.5583 67.4439 65.8043 67.4439 66.0503C67.592 69.7408 67.592 73.2836 67.592 76.8264ZM59.2945 76.8264C59.2945 77.5645 59.2945 78.3518 59.2945 79.0899C59.2945 81.5994 59.2945 84.1089 59.2945 86.6184C59.2945 86.8152 59.2945 87.0121 59.2945 87.2089C59.2945 87.2581 59.3439 87.3073 59.3933 87.3073C59.3933 87.3073 59.4427 87.3073 59.4921 87.3073C61.0726 87.3073 62.653 87.3073 64.2335 87.3073C64.2829 87.3073 64.2829 87.3073 64.3323 87.3073C64.3817 87.2581 64.4311 87.2089 64.4311 87.2089C64.4311 86.9137 64.4311 86.6676 64.4311 86.3724C64.4311 80.1232 64.4311 73.8741 64.4311 67.6249C64.4311 67.2805 64.4311 66.9853 64.4311 66.6408C64.4311 66.5916 64.4311 66.5424 64.4311 66.4932C64.4311 66.444 64.3817 66.3948 64.3323 66.3456C64.3323 66.3456 64.2829 66.3456 64.2335 66.3456C62.653 66.3456 61.0726 66.3456 59.4921 66.3456C59.4427 66.3456 59.4427 66.3456 59.3933 66.3456C59.3439 66.3948 59.2945 66.444 59.2945 66.444C59.2945 66.7392 59.2945 66.9853 59.2945 67.2805C59.2945 70.4789 59.2945 73.6281 59.2945 76.8264Z" fill="white"/>
<path d="M117.872 47.5978C117.872 51.0914 117.872 54.6342 117.872 58.1278C117.872 58.3247 117.872 58.5707 117.872 58.7675C117.872 59.0136 117.823 59.2596 117.773 59.5056C117.576 60.1945 117.131 60.6374 116.489 60.8834C116.242 60.9818 115.946 61.031 115.699 61.031C115.551 61.031 115.403 61.031 115.304 61.031C113.229 61.031 111.155 61.031 109.081 61.031C108.784 61.031 108.537 61.031 108.241 60.9818C107.648 60.8834 107.253 60.5881 106.908 60.0961C106.71 59.8501 106.611 59.5548 106.562 59.2596C106.512 59.0136 106.463 58.7675 106.463 58.5215C106.463 58.3247 106.463 58.1278 106.463 57.931C106.463 50.9438 106.463 44.0058 106.463 37.0185C106.463 36.8709 106.463 36.6741 106.463 36.5265C106.463 36.2312 106.463 35.9852 106.562 35.7392C106.71 34.9519 107.204 34.4598 107.945 34.1646C108.043 34.1154 108.142 34.1154 108.241 34.1154C108.439 34.1154 108.686 34.0662 108.883 34.0662C111.056 34.0662 113.18 34.0662 115.353 34.0662C115.551 34.0662 115.748 34.0662 115.946 34.0662C116.39 34.1154 116.785 34.263 117.131 34.6074C117.625 35.0503 117.823 35.5915 117.872 36.182C117.872 36.428 117.872 36.6741 117.872 36.9201C117.872 40.5613 117.872 44.1042 117.872 47.5978ZM114.76 47.5978C114.76 44.4486 114.76 41.2994 114.76 38.1503C114.76 37.9042 114.76 37.6582 114.76 37.4122C114.76 37.363 114.76 37.3138 114.711 37.2645C114.711 37.2153 114.662 37.1661 114.612 37.1661C114.464 37.1169 114.365 37.1169 114.217 37.1169C113.131 37.1169 112.044 37.1169 110.957 37.1169C110.661 37.1169 110.365 37.1169 110.068 37.1169C109.97 37.1169 109.92 37.1169 109.822 37.1169C109.723 37.1169 109.624 37.2153 109.624 37.3138C109.624 37.609 109.624 37.855 109.624 38.1503C109.624 44.2518 109.624 50.3533 109.624 56.4056C109.624 56.8485 109.624 57.2913 109.624 57.7342C109.624 57.8326 109.624 57.8818 109.624 57.9802C109.624 58.0294 109.723 58.1278 109.772 58.1278C109.871 58.1278 109.92 58.1278 110.019 58.1278C111.451 58.1278 112.933 58.1278 114.365 58.1278C114.464 58.1278 114.514 58.1278 114.612 58.1278C114.662 58.1278 114.76 58.0294 114.76 57.9802C114.76 57.7342 114.76 57.4882 114.76 57.2421C114.76 53.9946 114.76 50.7962 114.76 47.5978Z" fill="white"/>
<path d="M17.3637 76.7763C17.3637 72.7415 17.3637 68.6574 17.3637 64.6225C17.3637 64.3765 17.3637 64.1304 17.3637 63.8844C17.3637 63.8352 17.3637 63.786 17.4131 63.7368C17.5119 63.6384 17.6107 63.54 17.7094 63.4415C17.7588 63.3923 17.8082 63.3923 17.8576 63.3923C17.907 63.3923 17.9564 63.3923 18.0058 63.3923C18.1539 63.3923 18.3515 63.3923 18.4997 63.3923C20.8704 63.3923 23.2411 63.3923 25.6118 63.3923C25.9081 63.3923 26.1551 63.3923 26.4514 63.4415C26.9453 63.4907 27.3404 63.6876 27.6862 64.032C28.0813 64.4257 28.2788 64.9177 28.3282 65.5082C28.3282 65.705 28.3282 65.9018 28.3282 66.0987C28.3282 69.1494 28.3282 72.2002 28.3282 75.251C28.3282 75.3986 28.3282 75.5954 28.3282 75.743C28.3282 75.9398 28.2788 76.1859 28.2294 76.3827C28.0813 76.924 27.7356 77.3176 27.2417 77.6128C26.9453 77.7605 26.5996 77.8589 26.2539 77.9081C25.8587 77.9573 25.4142 77.9573 25.0191 77.9573C24.9697 77.9573 24.9203 78.0065 24.9203 78.0557C24.9203 78.1049 24.9203 78.1541 24.9203 78.2033C24.9697 78.3509 24.9697 78.4493 25.0191 78.597C26.2045 82.1398 27.4392 85.6334 28.6246 89.1762C28.674 89.3239 28.7233 89.4715 28.7727 89.6191C28.8221 89.7175 28.7727 89.7667 28.7727 89.8651C28.7233 90.0127 28.6246 90.1603 28.4764 90.2588C28.427 90.308 28.3282 90.3572 28.2788 90.3572C28.2788 90.3572 28.2295 90.3572 28.1801 90.3572C27.4392 90.3572 26.6984 90.3572 25.9575 90.3572C25.8587 90.3572 25.76 90.308 25.7106 90.1604C25.6612 90.0619 25.6612 90.0127 25.6118 89.9143C25.2167 88.7334 24.8216 87.6016 24.4758 86.4207C23.4386 83.3207 22.4509 80.2208 21.4137 77.1208C21.3149 76.7763 21.1667 76.3827 21.0679 76.0382C21.0185 75.9398 21.0185 75.8414 21.0679 75.743C21.2161 75.5462 21.3149 75.3002 21.4631 75.1525C21.5124 75.1033 21.6112 75.0541 21.6606 75.0541C21.8088 75.0541 22.0063 75.0541 22.1545 75.0541C23.0435 75.0541 23.8832 75.0541 24.7722 75.0541C24.8709 75.0541 24.9697 75.0541 25.1179 75.0049C25.1673 75.0049 25.2167 74.9557 25.2167 74.9065C25.2167 74.8573 25.2661 74.8081 25.2661 74.7589C25.2661 74.6113 25.2661 74.4637 25.2661 74.3653C25.2661 71.905 25.2661 69.4447 25.2661 67.0336C25.2661 66.886 25.2661 66.6891 25.2167 66.5415C25.2167 66.4923 25.1673 66.4431 25.1179 66.4431C25.1179 66.4431 25.0685 66.4431 25.0191 66.4431C23.5868 66.4431 22.1051 66.4431 20.6728 66.4431C20.6234 66.4431 20.6234 66.4431 20.574 66.4431C20.5247 66.4923 20.4753 66.5415 20.4753 66.5415C20.4753 66.5907 20.4753 66.6399 20.4753 66.6891C20.4753 66.9844 20.4753 67.2304 20.4753 67.5256C20.4753 74.6605 20.4753 81.8445 20.4753 88.9794C20.4753 89.2746 20.4753 89.5207 20.4753 89.8159C20.4753 89.8651 20.4753 89.9143 20.4259 89.9635C20.3271 90.1111 20.2283 90.2096 20.0801 90.308C20.0308 90.3572 19.9814 90.3572 19.932 90.3572C19.8826 90.3572 19.8332 90.3572 19.7838 90.3572C19.2405 90.3572 18.6972 90.3572 18.1539 90.3572C17.907 90.3572 17.7094 90.2588 17.5613 90.1111C17.5119 90.0619 17.5119 90.0127 17.4625 89.9635C17.4131 89.9143 17.4131 89.8651 17.4131 89.8159C17.4131 89.5699 17.4131 89.3238 17.4131 89.0778C17.4131 85.3382 17.4131 81.6477 17.4131 77.9081C17.3637 77.5144 17.3637 77.1208 17.3637 76.7763Z" fill="white"/>
<path d="M93.2262 76.0878C93.2262 79.8275 93.2262 83.6163 93.2262 87.356C93.2262 87.5528 93.2262 87.7988 93.2262 87.9957C93.2262 88.2909 93.1768 88.5861 93.078 88.8814C92.9298 89.3734 92.5841 89.7179 92.1396 90.0131C91.942 90.1607 91.6951 90.2099 91.4481 90.2591C91.2012 90.3083 90.9543 90.3083 90.7073 90.3083C90.0158 90.3083 89.3244 90.3083 88.6823 90.3083C87.3488 90.3083 86.0153 90.3083 84.6818 90.3083C84.3854 90.3083 84.1385 90.3083 83.8421 90.2591C83.1507 90.1607 82.7062 89.8163 82.3604 89.2258C82.2617 89.029 82.1629 88.8322 82.1135 88.6353C82.0641 88.3893 82.0147 88.0941 82.0147 87.848C82.0147 87.7004 82.0147 87.5036 82.0147 87.356C82.0147 79.8275 82.0147 72.299 82.0147 64.7213C82.0147 64.426 82.0147 64.18 82.0147 63.8848C82.0147 63.8356 82.0641 63.7864 82.0641 63.7372C82.1629 63.6387 82.2617 63.5403 82.3604 63.4419C82.4098 63.3927 82.5086 63.3435 82.558 63.3435C83.1507 63.3435 83.7433 63.3435 84.336 63.3435C84.583 63.3435 84.7311 63.4419 84.8793 63.6387C84.9781 63.7372 85.0275 63.8356 85.0275 63.9832C85.0275 64.2292 85.0275 64.4752 85.0275 64.7213C85.0275 71.9053 85.0275 79.0894 85.0275 86.2735C85.0275 86.5687 85.0275 86.8147 85.0275 87.11C85.0275 87.2084 85.1263 87.3068 85.225 87.3068C85.2744 87.3068 85.3238 87.3068 85.3732 87.3068C85.472 87.3068 85.5214 87.3068 85.6202 87.3068C86.8549 87.3068 88.139 87.3068 89.3738 87.3068C89.522 87.3068 89.6701 87.3068 89.7689 87.3068C89.8183 87.3068 89.9171 87.2084 89.9171 87.1592C89.9171 87.0608 89.9171 87.0115 89.9171 86.9131C89.9171 86.6671 89.9171 86.4211 89.9171 86.175C89.9171 79.0402 89.9171 71.8561 89.9171 64.7213C89.9171 64.4752 89.9171 64.2292 89.9171 63.9832C89.9171 63.8356 89.9665 63.7372 90.0652 63.6387L90.1146 63.5895C90.2134 63.4419 90.3616 63.3927 90.5591 63.3927C91.1024 63.3927 91.5963 63.3927 92.1396 63.3927C92.5841 63.3927 92.6335 63.3927 92.9792 63.7864C93.0286 63.8356 93.0286 63.8848 93.0286 63.934C93.0286 64.18 93.0286 64.426 93.0286 64.6721C93.2262 68.4609 93.2262 72.299 93.2262 76.0878Z" fill="white"/>
<path d="M48.0841 90.3576C47.689 90.3576 47.2445 90.3576 46.8493 90.3576C46.7506 90.3576 46.6518 90.2591 46.6024 90.1607C46.6024 90.1115 46.6024 90.1115 46.553 90.0623C46.5036 89.6687 46.4048 89.3242 46.3554 88.9306C46.2073 87.9465 46.0097 86.9623 45.8615 85.9782C45.7134 84.9941 45.5158 84.01 45.3677 83.0259C45.2195 82.1894 45.1207 81.3529 44.9725 80.5164C44.8244 79.7291 44.7256 78.8926 44.5774 78.1053C44.4292 77.2688 44.3305 76.4323 44.1823 75.5958C44.0341 74.8085 43.886 73.972 43.7872 73.1847C43.6884 72.6926 43.639 72.2006 43.5402 71.7577C43.4908 71.3641 43.3921 70.9704 43.3427 70.5276C43.1945 69.5435 42.9969 68.5593 42.8488 67.526C42.7006 66.5419 42.503 65.5578 42.3549 64.5244C42.3549 64.426 42.3055 64.3276 42.3055 64.2292C42.2067 63.934 42.3549 63.6879 42.5524 63.4911C42.6512 63.3927 42.75 63.3435 42.8982 63.3435C43.5896 63.3435 44.3305 63.3435 45.0219 63.3435C45.0713 63.3435 45.0713 63.3435 45.1207 63.3435C45.2195 63.3435 45.3183 63.4911 45.3183 63.5403C45.417 64.0816 45.4664 64.6229 45.5652 65.1641C45.664 65.7054 45.7628 66.2467 45.8122 66.7879C45.9109 67.3292 45.9603 67.8705 46.0591 68.4117C46.1579 68.953 46.2073 69.4942 46.3061 70.0355C46.3554 70.5276 46.4542 71.0196 46.5036 71.5117C46.6024 72.053 46.6518 72.5942 46.7506 73.1355C46.8493 73.6275 46.8987 74.1688 46.9975 74.6609C47.0469 75.0545 47.0963 75.399 47.1457 75.7926C47.2445 76.3339 47.2938 76.8751 47.3926 77.4164C47.4914 77.9085 47.5408 78.4497 47.6396 78.9418C47.7384 79.4338 47.7877 79.9751 47.8371 80.4672C47.8865 80.8116 47.9359 81.1068 47.9853 81.4513C47.9853 81.5005 48.0347 81.5497 48.0841 81.5497L48.1335 81.5005C48.1829 81.3037 48.2323 81.156 48.2816 80.9592C48.3804 80.4672 48.4298 79.9259 48.4792 79.4338C48.5286 78.9418 48.6274 78.4497 48.6768 77.9577C48.7755 77.318 48.8743 76.6783 48.9731 76.0386C49.0719 75.4974 49.1213 74.9561 49.2201 74.4148C49.2694 73.9228 49.3682 73.4307 49.4176 72.9387C49.5164 72.3974 49.5658 71.8561 49.6646 71.3149C49.7633 70.8228 49.8127 70.2815 49.9115 69.7895C49.9609 69.3958 50.0103 69.0514 50.0597 68.6577C50.1585 68.1165 50.2078 67.526 50.3066 66.9847C50.4054 66.4435 50.5042 65.853 50.5536 65.3117C50.6524 64.7705 50.7017 64.2292 50.8005 63.6879C50.8005 63.6387 50.8005 63.6387 50.8499 63.5895C50.8499 63.5403 50.9981 63.4419 51.0475 63.4419C51.0969 63.4419 51.0969 63.4419 51.1462 63.4419C51.8377 63.4419 52.5786 63.4419 53.27 63.4419C53.3688 63.4419 53.4676 63.4911 53.5663 63.5895C53.6651 63.6879 53.7145 63.7372 53.7639 63.8356C53.8133 63.8848 53.8627 63.9832 53.8133 64.0816C53.7639 64.3276 53.7639 64.5737 53.7145 64.8197C53.6157 65.2625 53.5663 65.7054 53.4676 66.1975C53.3688 66.6403 53.3194 67.1324 53.27 67.5752C53.2206 68.0181 53.1218 68.5101 53.0724 68.953C52.9737 69.445 52.8749 69.9371 52.8255 70.38C52.6773 71.1672 52.5786 72.0037 52.4304 72.791C52.2822 73.5783 52.134 74.4148 52.0353 75.2021C51.8871 75.9894 51.7883 76.8259 51.6401 77.6132C51.492 78.4497 51.3438 79.2862 51.1956 80.1227C51.1463 80.5164 51.0475 80.91 50.9981 81.3529C50.8499 82.1402 50.7511 82.9767 50.603 83.764C50.4548 84.5513 50.3066 85.3878 50.2078 86.1751C50.1091 86.6671 50.0597 87.1592 49.9609 87.602C49.8621 88.0941 49.8127 88.5861 49.7139 89.029C49.6646 89.275 49.6646 89.5211 49.6152 89.7671C49.5658 89.9639 49.5658 90.2099 49.467 90.4068L49.4176 90.456C49.3682 90.456 49.3188 90.5052 49.2694 90.5052C48.8743 90.3576 48.4792 90.3576 48.0841 90.3576Z" fill="white"/>
<path d="M31.4886 76.8255C31.4886 72.7907 31.4886 68.7066 31.4886 64.6717C31.4886 64.4257 31.4886 64.1796 31.4886 63.9336C31.4886 63.8352 31.5379 63.786 31.5873 63.7368C31.6861 63.6384 31.7355 63.5892 31.8343 63.4907C31.8837 63.4415 31.9824 63.3923 32.0318 63.3923C32.1306 63.3923 32.18 63.3923 32.2788 63.3923C34.7483 63.3923 37.2178 63.3923 39.6379 63.3923C39.7366 63.3923 39.786 63.3923 39.8848 63.3923C39.9836 63.3923 40.033 63.4415 40.0824 63.4907C40.1318 63.54 40.1811 63.5892 40.2799 63.6384C40.3787 63.7368 40.4281 63.8352 40.4281 63.9828C40.4281 64.4749 40.4281 64.9669 40.4281 65.459C40.4281 65.7542 40.3293 66.0002 40.0824 66.1479C39.9836 66.1971 39.8848 66.2955 39.786 66.2955C39.5885 66.2955 39.3415 66.2955 39.144 66.2955C37.8104 66.2955 36.5263 66.2955 35.1928 66.2955C35.0446 66.2955 34.8471 66.2955 34.6989 66.3447C34.6495 66.3447 34.6001 66.3939 34.6001 66.4431C34.6001 66.5907 34.5507 66.6891 34.5507 66.8367C34.5507 67.9193 34.5507 69.0018 34.5507 70.0843C34.5507 71.5605 34.5507 73.0367 34.5507 74.5129C34.5507 74.6605 34.5507 74.8081 34.5507 74.9065C34.5507 74.9557 34.6495 75.0541 34.6989 75.0541C34.8471 75.0541 35.0446 75.0541 35.1928 75.0541C36.3781 75.0541 37.5635 75.0541 38.6995 75.0541C38.897 75.0541 39.0946 75.0541 39.2921 75.0541C39.3415 75.0541 39.3909 75.0541 39.4403 75.1033C39.5885 75.2018 39.6872 75.3002 39.786 75.4478C39.8354 75.497 39.8354 75.5462 39.8354 75.5954C39.8354 76.2351 39.8354 76.8255 39.8354 77.4652C39.8354 77.5144 39.786 77.5636 39.786 77.6128C39.6872 77.7605 39.5885 77.8589 39.4403 77.9573C39.3909 78.0065 39.3415 78.0065 39.2921 78.0065C39.0946 78.0065 38.897 78.0065 38.6995 78.0065C37.5635 78.0065 36.4275 78.0065 35.2422 78.0065C35.094 78.0065 34.9458 78.0065 34.8471 78.0065C34.6001 78.0065 34.5507 78.1049 34.5507 78.3017C34.5507 78.4001 34.5507 78.4985 34.5507 78.6462C34.5507 81.3525 34.5507 84.0588 34.5507 86.7159C34.5507 86.8636 34.5507 87.0112 34.6001 87.1096C34.6001 87.1588 34.6495 87.208 34.6989 87.208C34.8471 87.208 35.0446 87.2572 35.1928 87.2572C36.5263 87.2572 37.8104 87.2572 39.144 87.2572C39.3415 87.2572 39.5885 87.2572 39.786 87.2572C39.9836 87.2572 40.1318 87.3556 40.2799 87.5032C40.3293 87.5524 40.3787 87.6016 40.3787 87.6016C40.4281 87.6508 40.4775 87.7493 40.4775 87.7985C40.4775 88.3889 40.4775 88.9794 40.4775 89.5699C40.4775 89.6683 40.4281 89.7667 40.3293 89.8651C40.2305 89.9635 40.1811 90.0127 40.0824 90.0619C40.033 90.1111 39.9836 90.1111 39.9342 90.1111C39.7366 90.1111 39.5391 90.1111 39.3415 90.1111C37.5141 90.1111 35.6867 90.1111 33.8593 90.1111C33.316 90.1111 32.8221 90.1111 32.2788 90.1111C32.18 90.1111 32.0812 90.1111 31.9331 90.1111C31.8343 90.1111 31.7849 90.0619 31.7355 90.0127C31.6367 89.9143 31.5873 89.8651 31.4886 89.7667C31.4392 89.7175 31.3898 89.6191 31.3898 89.5699C31.3898 89.3238 31.3898 89.0778 31.3898 88.8318C31.4885 84.9445 31.4886 80.9096 31.4886 76.8255Z" fill="white"/>
<path d="M203.612 36.0344C203.859 35.936 204.155 35.8868 204.402 35.8376C204.649 35.7392 204.945 35.69 205.192 35.6408C205.341 35.5916 205.489 35.5424 205.637 35.4932C206.032 35.2963 206.427 35.1979 206.872 35.0503C206.921 35.0503 206.97 35.0503 207.02 35.0011C207.168 34.9519 207.316 34.8535 207.464 34.7551C207.612 34.6567 207.81 34.5583 207.958 34.5091C208.106 34.4598 208.254 34.3614 208.403 34.263C208.65 34.1154 208.847 33.9678 209.094 33.8202C209.341 33.6726 209.588 33.4757 209.786 33.2297C209.934 33.0329 210.082 32.8853 210.279 32.7868C210.428 32.6884 210.576 32.5408 210.675 32.3932C210.823 32.2456 210.971 32.0488 211.07 31.9011C211.168 31.7535 211.267 31.6551 211.415 31.5567C211.761 31.2123 212.107 30.8678 212.354 30.425C212.749 29.8837 213.144 29.3424 213.589 28.8012C213.687 28.6536 213.836 28.5059 213.885 28.3091C213.984 28.0631 214.082 27.8171 214.231 27.571C214.28 27.4726 214.28 27.4234 214.231 27.325C214.132 27.1282 214.132 26.9805 214.231 26.7837C214.231 26.7345 214.28 26.6853 214.28 26.6361C214.28 26.5869 214.28 26.5869 214.28 26.5377C214.329 26.3409 214.231 26.144 214.082 26.0456C213.885 25.898 213.638 25.7996 213.44 25.652C213.292 25.5536 213.193 25.3568 213.144 25.1599C213.144 25.0123 213.144 24.8155 213.144 24.6679C213.193 24.1266 213.292 23.5853 213.391 23.0441C213.44 22.798 213.44 22.552 213.44 22.306C213.44 21.6663 213.49 20.9774 213.49 20.3378C213.49 19.9933 213.539 19.6981 213.589 19.3536C213.638 19.1076 213.737 18.96 213.984 18.8616C214.033 18.8616 214.082 18.8124 214.132 18.8124C214.231 18.7632 214.231 18.714 214.28 18.6155C214.28 18.5663 214.28 18.5663 214.28 18.5171C214.28 18.4187 214.28 18.3203 214.329 18.1727C214.379 18.0251 214.379 17.9267 214.379 17.779C214.379 17.4346 214.478 17.1394 214.576 16.8441C214.626 16.7457 214.675 16.6473 214.725 16.5489C214.823 16.4013 214.922 16.3029 215.12 16.3029C215.317 16.3029 215.564 16.3521 215.762 16.3029C216.058 16.3029 216.305 16.2537 216.601 16.2537C216.947 16.2537 217.293 16.3521 217.639 16.4013C217.935 16.4505 218.281 16.7457 218.281 17.041C218.33 17.533 218.33 18.0251 218.231 18.5171C218.182 18.714 218.231 18.7632 218.478 18.8616C218.577 18.9108 218.626 18.9108 218.676 18.96C218.775 19.0584 218.873 19.1568 218.873 19.3044C218.873 19.3536 218.923 19.4028 218.873 19.452C218.873 19.7473 218.873 19.9933 218.824 20.2885C218.775 20.8298 218.725 21.3711 218.725 21.9123C218.725 22.4044 218.725 22.9457 218.626 23.4377C218.528 23.8806 218.528 24.3726 218.528 24.8155C218.528 24.9631 218.528 25.1107 218.528 25.2091C218.478 25.406 218.379 25.5536 218.231 25.652C218.132 25.7012 218.034 25.7504 217.935 25.7996C217.836 25.8488 217.737 25.898 217.737 26.0456C217.737 26.4393 217.639 26.7837 217.392 27.1282C217.293 27.2758 217.145 27.4234 217.095 27.6202C217.046 27.7678 216.947 27.8663 216.848 27.9647C216.7 28.1615 216.503 28.3091 216.354 28.5059C216.305 28.5551 216.256 28.6536 216.206 28.7028C216.157 28.8012 216.107 28.8996 216.058 28.998C215.91 29.4901 215.614 29.8837 215.317 30.2773C214.873 30.7694 214.527 31.3107 214.181 31.8519C213.984 32.1964 213.687 32.4916 213.44 32.8361C212.996 33.2297 212.65 33.7218 212.255 34.1646C212.156 34.3122 212.058 34.4106 211.909 34.5091C211.712 34.6567 211.514 34.8043 211.366 35.0011C211.267 35.1487 211.119 35.2963 210.971 35.3948C210.823 35.4932 210.675 35.6408 210.526 35.7392C210.378 35.8376 210.23 35.8868 210.082 35.9852C209.884 36.0836 209.687 36.2313 209.539 36.3297C209.39 36.4281 209.242 36.4773 209.094 36.5757C208.897 36.6741 208.699 36.7233 208.501 36.8709C208.156 37.117 207.711 37.2154 207.316 37.363C207.069 37.4614 206.872 37.5106 206.625 37.609C206.279 37.8058 205.884 37.8551 205.538 38.0027C205.044 38.1011 204.55 38.2487 204.007 38.3471C203.76 38.3963 203.513 38.4455 203.316 38.5439C203.118 38.6424 202.92 38.6916 202.673 38.6916C202.427 38.6916 202.229 38.7408 202.031 38.8392C201.784 38.9376 201.587 38.9868 201.34 38.9868C200.994 38.9868 200.698 39.0852 200.352 39.1344C200.006 39.1836 199.71 39.282 199.414 39.3804C199.117 39.4788 198.821 39.5281 198.525 39.6265C198.426 39.6757 198.327 39.6757 198.228 39.6757C198.031 39.7741 197.833 39.7741 197.685 39.8233C197.586 39.8725 197.537 39.8725 197.438 39.9217C196.994 40.1185 196.5 40.2661 196.105 40.463C195.956 40.5614 195.759 40.6106 195.561 40.6598C195.117 40.7582 194.722 40.9058 194.376 41.1518C194.178 41.2503 193.981 41.3487 193.783 41.3979C193.438 41.4963 193.092 41.6439 192.796 41.7915C192.549 41.9391 192.302 42.0376 192.104 42.1852C191.906 42.3328 191.66 42.382 191.462 42.4804C191.116 42.6772 190.721 42.8248 190.326 42.9725C190.178 43.0217 190.03 43.1201 189.882 43.2185C189.684 43.3169 189.486 43.4153 189.289 43.5137C189.091 43.6121 188.894 43.6614 188.696 43.809C188.449 44.0058 188.202 44.055 187.955 44.1042C187.659 44.1534 187.363 44.2518 187.116 44.3502C186.918 44.4486 186.77 44.4979 186.572 44.5963C186.424 44.6455 186.276 44.6947 186.128 44.7439C185.733 44.8915 185.387 45.0883 185.041 45.2851C184.893 45.3836 184.696 45.482 184.547 45.5804C184.449 45.6296 184.3 45.728 184.202 45.7772C184.004 45.8264 183.856 45.9248 183.658 45.974C183.411 46.0724 183.214 46.1709 183.016 46.3185C182.769 46.5153 182.473 46.6629 182.226 46.9089C182.029 47.1058 181.782 47.3026 181.535 47.4502C181.436 47.5486 181.337 47.5978 181.189 47.6962C180.794 47.9423 180.497 48.2375 180.201 48.5819C180.004 48.828 179.757 49.074 179.559 49.32C179.362 49.5661 179.115 49.8121 178.868 50.0089C178.621 50.2057 178.324 50.4026 178.077 50.5994C177.781 50.8454 177.435 50.8454 177.09 50.7962C176.991 50.7962 176.941 50.747 176.843 50.6978C176.694 50.6486 176.546 50.501 176.448 50.4518C176.398 50.4026 176.349 50.4026 176.299 50.4026C176.25 50.4026 176.25 50.501 176.201 50.501C176.25 50.501 176.299 50.4518 176.349 50.4518C176.349 50.4026 176.349 50.3534 176.349 50.3041C176.299 50.1565 176.201 50.0089 176.201 49.8613C176.102 49.4184 176.201 49.074 176.497 48.7296C176.645 48.5819 176.793 48.4343 176.991 48.2867C177.287 48.0899 177.534 47.8439 177.732 47.5486C177.88 47.3518 177.979 47.2042 178.127 47.0566C178.423 46.7121 178.67 46.4169 179.016 46.1216C179.164 45.974 179.362 45.8264 179.51 45.728C179.905 45.482 180.251 45.1867 180.596 44.8915C180.695 44.7931 180.744 44.7439 180.843 44.6947C181.189 44.4978 181.485 44.2518 181.782 44.055C181.88 44.0058 181.979 43.9074 182.078 43.9074C182.325 43.809 182.572 43.6614 182.819 43.5629C183.066 43.4645 183.313 43.3661 183.56 43.2185C183.658 43.1693 183.757 43.1201 183.856 43.0709C184.004 42.9725 184.152 42.8249 184.35 42.7756C184.597 42.6772 184.844 42.5296 185.091 42.4312C185.486 42.2836 185.832 42.136 186.227 41.9883C186.325 41.9391 186.424 41.9391 186.523 41.9391C186.523 42.0376 186.523 42.136 186.523 42.2344C186.325 42.382 186.029 42.4804 185.782 42.5788C185.436 42.7264 185.14 42.8741 184.844 43.0217C184.449 43.2677 184.054 43.4153 183.658 43.6121C182.819 43.9566 182.819 43.9566 182.127 44.3994C181.485 44.7931 180.893 45.1867 180.349 45.728C180.3 45.7772 180.251 45.8264 180.251 45.8264C179.658 46.2201 179.164 46.7121 178.67 47.2534C178.423 47.5486 178.127 47.7946 177.88 48.0899C177.83 48.1391 177.83 48.1883 177.781 48.2375C177.485 48.6311 177.188 49.0248 176.843 49.3692C176.744 49.5169 176.645 49.6153 176.546 49.7629C176.497 49.8613 176.497 49.9597 176.546 50.0581C176.596 50.1565 176.694 50.2057 176.793 50.2549C176.892 50.3041 177.04 50.2549 177.09 50.1565C177.238 50.0089 177.287 49.8613 177.435 49.7137C177.732 49.3692 177.979 49.0248 178.275 48.6804C178.374 48.5819 178.472 48.4835 178.522 48.3851C178.818 48.0407 179.164 47.6962 179.46 47.401C179.707 47.155 179.954 46.9581 180.201 46.7613C180.448 46.5645 180.695 46.4169 180.893 46.1709C181.189 45.8756 181.535 45.6296 181.88 45.4328C182.868 44.8423 182.967 44.6947 184.103 44.2518C184.449 44.1042 184.745 43.9566 185.041 43.7598C185.338 43.5629 185.683 43.4153 185.98 43.2677C186.325 43.1201 186.671 42.9725 187.017 42.7756C187.165 42.6772 187.313 42.628 187.461 42.5788C187.61 42.5296 187.758 42.4804 187.906 42.382C188.4 42.0868 188.943 41.9391 189.486 41.7915C190.079 41.5947 190.672 41.3979 191.264 41.1518C191.413 41.1026 191.561 41.0042 191.709 41.0042C192.4 40.8074 193.042 40.5122 193.635 40.1677C194.228 39.8233 194.87 39.4788 195.561 39.3312C196.006 39.2328 196.401 39.0852 196.796 38.9376C197.586 38.6916 198.377 38.4455 199.117 38.1995C199.216 38.1503 199.315 38.1011 199.414 38.1011C199.611 38.0519 199.759 38.0027 199.957 37.9535C200.55 37.7566 201.142 37.5598 201.735 37.4122C202.031 37.3138 202.377 37.2646 202.673 37.117C202.92 37.0186 203.167 36.9693 203.365 36.9693C203.513 36.9693 203.661 36.9693 203.76 36.9201C203.958 36.8709 204.205 36.8217 204.402 36.8217C204.698 36.8217 204.945 36.8217 205.192 36.7233C205.686 36.5757 206.18 36.4281 206.674 36.2313C207.168 36.0344 207.612 35.7884 208.057 35.5424C208.65 35.2963 209.193 34.9519 209.687 34.6075C209.884 34.4598 210.082 34.3122 210.279 34.2138C210.625 34.017 210.922 33.771 211.168 33.5249C211.317 33.3773 211.514 33.2297 211.662 33.0821C211.761 32.9837 211.86 32.8853 211.959 32.7868C212.255 32.4424 212.601 32.098 212.897 31.7535C213.045 31.5567 213.193 31.3599 213.342 31.1631C213.44 30.9662 213.589 30.7202 213.737 30.5726C214.132 30.1297 214.329 29.5885 214.626 29.0964C214.675 28.998 214.675 28.8996 214.675 28.8012C214.675 28.6536 214.576 28.5551 214.428 28.5059C214.329 28.4567 214.132 28.5551 214.082 28.6535C214.033 28.752 213.934 28.8996 213.885 28.998C213.638 29.4408 213.44 29.8837 213.095 30.2281C213.045 30.2773 212.996 30.3758 212.947 30.425C212.7 30.917 212.354 31.3107 211.959 31.7043C211.811 31.8519 211.662 32.0488 211.514 32.1964C211.119 32.59 210.675 32.9837 210.23 33.3773C210.181 33.4265 210.131 33.4265 210.082 33.4757C209.687 33.6726 209.341 33.9678 208.995 34.2138C208.65 34.4598 208.254 34.7059 207.859 34.8535C207.662 34.9519 207.514 35.0011 207.365 35.0995C206.773 35.444 206.131 35.69 205.489 35.8868C205.39 35.936 205.291 35.936 205.192 35.9852C204.847 36.0344 204.501 36.1328 204.155 36.1328C203.958 36.1328 203.711 36.1821 203.513 36.1821C203.414 36.1821 203.316 36.1821 203.167 36.1821C203.612 36.1328 203.612 36.0836 203.612 36.0344ZM215.762 23.2409C215.811 23.2901 215.811 23.3393 215.811 23.3885C215.762 23.4377 215.712 23.5361 215.712 23.5853C215.614 23.8314 215.663 23.979 215.861 24.1758C215.91 24.225 216.009 24.225 216.107 24.225C216.404 24.225 216.601 23.9298 216.503 23.6345C216.404 23.3885 216.404 23.1425 216.404 22.8965C216.404 22.8473 216.404 22.798 216.404 22.7488C216.404 22.6504 216.453 22.6012 216.552 22.552C216.7 22.5028 216.799 22.5028 216.947 22.4536C217.095 22.4044 217.243 22.306 217.342 22.1584C217.54 21.9615 217.639 21.7155 217.737 21.4695C217.787 21.3711 217.688 21.2235 217.639 21.1743C217.54 21.1743 217.49 21.125 217.392 21.125C217.293 21.125 217.243 21.1743 217.194 21.2727C217.145 21.3219 217.145 21.4203 217.145 21.5187C217.194 21.8139 217.095 22.0108 216.848 22.1584C216.799 22.2076 216.7 22.2076 216.601 22.2076C216.552 22.2076 216.453 22.1092 216.453 22.06C216.404 21.8631 216.453 21.6171 216.503 21.4203L216.552 21.3711C216.601 21.3219 216.651 21.3219 216.7 21.2727C216.75 21.2235 216.799 21.2235 216.848 21.1743C216.848 21.0758 216.848 21.0266 216.799 20.9282C216.7 20.7314 216.601 20.5346 216.453 20.387C216.404 20.3378 216.305 20.3378 216.256 20.387C216.107 20.5838 215.959 20.7806 215.811 20.9774C215.762 21.0266 215.762 21.0758 215.762 21.125C215.762 21.125 215.762 21.1743 215.762 21.2235C215.811 21.2727 215.861 21.2727 215.91 21.2727C216.107 21.3219 216.107 21.3711 216.107 21.5679C216.058 22.0108 216.009 22.5028 215.959 22.9457C215.663 22.9457 215.515 22.798 215.367 22.552C215.317 22.4536 215.317 22.4044 215.367 22.306C215.416 22.2076 215.465 22.1092 215.564 22.06C215.614 21.9615 215.564 21.9123 215.515 21.8139C215.416 21.7155 215.268 21.6171 215.169 21.6663C215.021 21.7155 214.873 21.9123 214.922 22.06C214.971 22.2568 215.07 22.4536 215.12 22.6996C215.169 22.798 215.218 22.8965 215.317 22.9457C215.416 23.0441 215.515 23.1425 215.663 23.1917C215.614 23.2409 215.663 23.2409 215.762 23.2409ZM216.503 19.8457C216.996 19.8457 217.54 19.8457 218.034 19.8457C218.132 19.8457 218.231 19.8457 218.379 19.7965C218.429 19.7965 218.478 19.7473 218.478 19.6981C218.478 19.6981 218.478 19.6489 218.478 19.5997C218.478 19.5505 218.429 19.5013 218.379 19.5013C218.379 19.5013 218.33 19.452 218.281 19.452C218.182 19.452 218.132 19.452 218.034 19.452C216.75 19.452 215.416 19.452 214.132 19.4028C214.033 19.4028 213.934 19.5013 213.934 19.5997C213.885 20.5838 213.737 21.5679 213.737 22.5028C213.737 22.552 213.737 22.6012 213.737 22.6504C213.638 23.3393 213.638 24.0774 213.589 24.7663C213.589 24.8155 213.589 24.8155 213.589 24.8647C213.589 24.9139 213.638 24.9631 213.687 25.0123C213.687 25.0123 213.737 25.0123 213.786 25.0123C213.836 25.0123 213.836 25.0123 213.885 25.0123C213.934 24.9631 213.984 24.9139 213.984 24.9139C213.984 24.9139 213.984 24.8647 213.984 24.8155C214.132 23.979 214.181 23.0933 214.28 22.2076C214.379 21.5187 214.428 20.8298 214.527 20.0917C214.527 20.0425 214.527 20.0425 214.527 19.9933C214.527 19.8457 214.675 19.7473 214.774 19.7473C215.317 19.8457 215.91 19.8457 216.503 19.8457ZM214.428 26.2425C214.428 26.3409 214.428 26.4885 214.527 26.5377C214.626 26.6361 214.725 26.7345 214.823 26.7837C215.169 26.9313 215.515 27.0298 215.91 27.1282C215.959 27.1282 215.959 27.1282 216.009 27.1282C216.107 27.1282 216.206 27.079 216.305 26.9805C216.354 26.8821 216.354 26.7837 216.256 26.7345C216.206 26.6853 216.157 26.6853 216.107 26.6853C215.91 26.6853 215.712 26.6361 215.564 26.5377V26.4885C215.564 26.4393 215.614 26.3901 215.663 26.3901C215.91 26.3409 216.157 26.3409 216.404 26.3409C216.651 26.3409 216.898 26.2917 217.095 26.144C217.145 26.0948 217.194 26.0948 217.194 26.0456C217.194 25.9964 217.243 25.9472 217.194 25.898C217.194 25.8488 217.095 25.8488 217.046 25.7996C216.947 25.7504 216.848 25.7996 216.75 25.8488C216.256 25.9964 215.762 25.9964 215.317 25.9964C215.169 25.9964 214.972 25.9472 214.873 25.8488C214.873 25.8488 214.823 25.8488 214.774 25.7996C214.675 25.7504 214.527 25.8488 214.527 25.9472C214.478 26.0948 214.428 26.144 214.428 26.2425ZM216.404 18.714C215.811 18.6648 215.367 18.714 214.922 18.714C214.873 18.714 214.823 18.7632 214.823 18.8124C214.774 18.8616 214.823 19.0092 214.873 19.0584C214.922 19.1076 214.971 19.1076 215.021 19.1568C215.12 19.1568 215.218 19.206 215.367 19.206C215.91 19.206 216.453 19.206 216.996 19.206C217.194 19.206 217.392 19.206 217.589 19.206C217.639 19.206 217.688 19.1568 217.737 19.1568C217.787 19.1568 217.885 19.0092 217.885 18.96C217.885 18.9108 217.787 18.8124 217.737 18.8124C217.639 18.8124 217.589 18.7632 217.49 18.7632C216.996 18.714 216.651 18.714 216.404 18.714ZM215.811 17.9267C215.811 17.5822 215.811 17.3362 215.712 17.0902C215.712 17.041 215.663 16.9918 215.614 16.9918C215.564 16.9425 215.515 16.9918 215.465 17.041C215.268 17.1886 215.12 17.3854 215.12 17.6314C215.07 17.8283 215.07 18.0251 215.021 18.1727C215.021 18.2711 215.12 18.4679 215.218 18.4679C215.317 18.4679 215.416 18.4679 215.564 18.4679C215.663 18.4679 215.811 18.3695 215.811 18.2711C215.811 18.1727 215.811 17.9759 215.811 17.9267ZM216.898 18.4187C217.046 18.3695 217.145 18.3695 217.243 18.3695C217.342 18.3695 217.392 18.2711 217.392 18.1727C217.441 18.0743 217.441 17.9759 217.441 17.8775C217.441 17.7298 217.392 17.533 217.392 17.3854C217.392 17.287 217.293 17.1886 217.194 17.1394C217.145 17.0902 217.046 17.0902 216.947 17.1394C216.848 17.1886 216.799 17.2378 216.799 17.287C216.7 17.5822 216.552 17.8775 216.552 18.2219C216.552 18.2711 216.552 18.2711 216.552 18.3203C216.552 18.4187 216.651 18.5171 216.799 18.4679C216.799 18.4187 216.848 18.4187 216.898 18.4187ZM216.206 28.1123C216.206 28.0139 216.157 27.9647 216.058 27.9155C215.861 27.817 215.712 27.8171 215.515 27.8171C215.169 27.7678 214.873 27.6202 214.774 27.2758L214.725 27.2266C214.675 27.1774 214.626 27.1774 214.576 27.1774C214.527 27.1774 214.478 27.2266 214.428 27.2758C214.379 27.3742 214.379 27.4726 214.428 27.571C214.527 27.8171 214.725 28.0139 215.021 28.1123C215.268 28.2107 215.564 28.2599 215.811 28.3091C215.91 28.3091 215.959 28.3091 216.058 28.3091C216.157 28.2599 216.206 28.1615 216.206 28.1123Z" fill="#AD2424"/>
<path d="M99.0037 78.0578C99.0037 74.4657 99.0037 70.8245 99.0037 67.2325C99.0037 66.9864 99.0037 66.7404 98.9543 66.4944C98.9543 66.4452 98.9049 66.396 98.8555 66.396C98.7567 66.3468 98.6579 66.3467 98.5098 66.3467C97.7689 66.3467 97.0281 66.3467 96.2872 66.3467C96.0897 66.3467 95.8921 66.3467 95.6946 66.3467C95.5958 66.3467 95.497 66.2975 95.3982 66.1991C95.3488 66.1499 95.2994 66.1007 95.2007 66.0515C95.1019 65.9531 95.0525 65.8547 95.0525 65.7071C95.0525 65.461 95.0525 65.215 95.0525 64.969C95.0525 64.723 95.0525 64.4769 95.0525 64.2309C95.0525 63.8865 95.2007 63.6896 95.4476 63.4928C95.497 63.4436 95.5464 63.4436 95.5958 63.4436C95.7933 63.4436 95.9909 63.4436 96.1884 63.4436C98.2134 63.4436 100.238 63.4436 102.263 63.4436C103.152 63.4436 104.041 63.4436 104.98 63.4436C105.128 63.4436 105.276 63.4436 105.375 63.4436C105.424 63.4436 105.474 63.4928 105.523 63.4928C105.622 63.5912 105.721 63.6896 105.819 63.788C105.869 63.8372 105.869 63.8865 105.869 63.9357C105.869 63.9849 105.869 64.0341 105.869 64.0833C105.869 64.5753 105.869 65.1166 105.869 65.6087C105.869 65.8055 105.77 65.9531 105.622 66.1007L105.572 66.1499C105.474 66.2483 105.375 66.2975 105.227 66.2975C105.029 66.2975 104.832 66.2975 104.634 66.2975C103.992 66.2975 103.399 66.2975 102.757 66.2975C102.609 66.2975 102.461 66.2975 102.362 66.2975C102.165 66.2975 102.066 66.396 102.066 66.5928C102.066 66.7896 102.066 67.0356 102.066 67.2325C102.066 68.7086 102.066 70.1848 102.066 71.661C102.066 77.4181 102.066 83.126 102.066 88.8831C102.066 89.1783 102.066 89.4243 102.066 89.7196C102.066 89.818 102.016 89.9164 101.918 90.0148C101.868 90.064 101.819 90.1132 101.769 90.2116C101.671 90.31 101.572 90.3592 101.473 90.3592C101.177 90.3592 100.93 90.3592 100.634 90.3592C100.288 90.3592 99.9421 90.3592 99.547 90.3592C99.4482 90.3592 99.3494 90.31 99.2506 90.2608C99.1518 90.2116 99.1024 90.1132 99.0037 90.0148C98.9543 89.9656 98.9049 89.8672 98.9049 89.818C98.9049 89.5227 98.9049 89.2767 98.9049 88.9815C99.0037 85.291 99.0037 81.6498 99.0037 78.0578Z" fill="#F92C2C"/>
<path d="M70.8526 76.7275C70.8526 72.7418 70.8526 68.7562 70.8526 64.7213C70.8526 64.426 70.8526 64.18 70.8526 63.8848C70.8526 63.8356 70.9019 63.7864 70.9019 63.7372C70.9513 63.6387 71.0501 63.5895 71.0995 63.4911C71.1983 63.3927 71.2971 63.3435 71.4452 63.3435C71.8403 63.3435 72.2849 63.3435 72.68 63.3435C72.8775 63.3435 73.0751 63.3435 73.2726 63.3435C73.4702 63.3435 73.569 63.3927 73.7172 63.5403C73.7665 63.5895 73.8159 63.6387 73.8653 63.7372C73.9147 63.7864 73.9147 63.8356 73.9147 63.8848C73.9147 64.0324 73.9147 64.18 73.9147 64.2784C73.9147 64.9181 73.9147 65.607 73.9147 66.2467C73.9147 72.9387 73.9147 79.6307 73.9147 86.3227C73.9147 86.6179 73.9147 86.8639 73.9147 87.1592C73.9147 87.2084 74.0135 87.3068 74.0629 87.3068C74.2111 87.356 74.3098 87.356 74.458 87.356C75.6927 87.356 76.9275 87.356 78.1622 87.356C78.3598 87.356 78.6067 87.356 78.8043 87.356C79.15 87.3068 79.3476 87.5036 79.5451 87.7496C79.5945 87.7988 79.5945 87.8973 79.5945 87.9957C79.5945 88.5861 79.5945 89.1274 79.5945 89.7179C79.5945 89.7671 79.5945 89.7671 79.5945 89.8163C79.5945 89.8655 79.5451 89.9147 79.5451 89.9639C79.4464 90.0623 79.3476 90.1607 79.2488 90.2591C79.1994 90.3083 79.15 90.3083 79.1006 90.3083C78.9525 90.3083 78.7549 90.3576 78.6067 90.3576C76.8781 90.3576 75.1495 90.3576 73.4702 90.3576C72.8281 90.3576 72.1367 90.3576 71.4946 90.3576C71.2971 90.3576 71.1983 90.3083 71.0501 90.1607C71.0007 90.1115 70.9513 90.0623 70.9513 90.0623C70.8526 89.9639 70.8032 89.8655 70.8032 89.7179C70.8032 89.4718 70.8032 89.2258 70.8032 88.9798C70.8526 84.8465 70.8526 80.8116 70.8526 76.7275Z" fill="white"/>
<path d="M99.8938 47.5969C99.8938 43.562 99.8938 39.5271 99.8938 35.5414C99.8938 35.2954 99.8938 35.0494 99.8938 34.8034C99.8938 34.6557 99.9432 34.5573 100.042 34.4589C100.091 34.4097 100.141 34.3605 100.24 34.3113C100.289 34.2621 100.388 34.2129 100.437 34.2129C100.486 34.2129 100.486 34.2129 100.536 34.2129C101.129 34.2129 101.721 34.2129 102.314 34.2129C102.511 34.2129 102.61 34.3113 102.758 34.4097C102.808 34.4589 102.857 34.5081 102.857 34.5081C102.907 34.5573 102.956 34.6557 102.956 34.7049C102.956 34.8034 102.956 34.8526 102.956 34.951C102.956 35.1478 102.956 35.3446 102.956 35.5414C102.956 43.6112 102.956 51.681 102.956 59.8C102.956 60.0952 102.956 60.3412 102.956 60.6365C102.956 60.6857 102.907 60.7349 102.907 60.7841C102.857 60.8825 102.758 60.9317 102.709 61.0301C102.61 61.1285 102.511 61.1285 102.413 61.1777C102.363 61.1777 102.363 61.1777 102.314 61.1777C101.721 61.1777 101.129 61.1777 100.536 61.1777C100.437 61.1777 100.338 61.1285 100.24 61.0301C100.19 60.9809 100.141 60.9317 100.042 60.8825C99.9432 60.7841 99.8938 60.6857 99.8938 60.5381C99.8938 60.292 99.8938 60.046 99.8938 59.8C99.8938 56.4048 99.8938 53.0588 99.8938 49.6635C99.8938 48.8763 99.8938 48.2366 99.8938 47.5969Z" fill="#CC3030"/>
<path d="M149.629 66.4949C149.53 66.3965 149.382 66.3473 149.332 66.1996C149.382 66.1504 149.431 66.1012 149.382 66.052C149.332 65.9044 149.283 65.806 149.234 65.6584C149.184 65.5108 149.085 65.4123 148.987 65.3631C148.937 65.3139 148.838 65.2647 148.789 65.2155C148.591 65.1171 148.493 64.9695 148.394 64.8219C148.295 64.625 148.147 64.4774 147.999 64.3298C147.9 64.2314 147.851 64.2314 147.801 64.2806C147.801 64.3298 147.801 64.379 147.851 64.4282C147.949 64.5758 148.098 64.7235 148.098 64.9203C148.098 65.0187 148.147 65.0679 148.196 65.1663C148.246 65.2647 148.345 65.4123 148.394 65.5108C148.443 65.6584 148.591 65.7076 148.74 65.7076C148.838 65.7076 148.937 65.806 149.036 65.8552C149.184 65.9536 149.283 66.052 149.382 66.1996C149.332 66.2488 149.283 66.298 149.184 66.298C148.987 66.298 148.789 66.298 148.641 66.3473C148.542 66.3473 148.443 66.3965 148.345 66.4949C148.246 66.5441 148.246 66.6425 148.246 66.6917C148.048 66.6425 148.048 66.6917 148.048 66.8885C147.999 66.8393 147.949 66.8393 147.9 66.8393C147.851 66.8393 147.801 66.8393 147.752 66.8885C147.653 66.6917 147.604 66.4949 147.505 66.298C147.357 65.9044 147.209 65.56 147.06 65.1663C147.011 65.0679 147.011 65.0187 146.962 64.9695C146.863 64.8219 146.715 64.6743 146.715 64.4774C146.715 64.3298 146.566 64.1822 146.517 64.0346C146.468 63.8378 146.468 63.6901 146.665 63.5425C146.813 63.4441 146.813 63.3949 146.715 63.2965C146.665 63.1981 146.566 63.1489 146.517 63.0505C146.468 62.952 146.369 62.9028 146.32 62.8044C146.221 62.5584 146.073 62.3616 145.974 62.1648C145.875 62.0171 145.826 61.8203 145.727 61.6235C145.529 61.0822 145.431 60.541 145.282 59.9997C145.233 59.7045 145.233 59.4092 145.233 59.114C145.233 59.0156 145.282 58.9664 145.332 58.9172C145.431 58.8187 145.579 58.6711 145.579 58.5235C145.826 58.0315 146.171 57.5886 146.665 57.3426C146.912 57.195 147.209 57.0473 147.505 56.9981C147.752 56.8505 147.999 56.8997 148.246 56.8997C148.345 56.8997 148.443 56.9489 148.542 56.9981C148.838 57.1457 149.085 57.3426 149.382 57.5394C149.579 57.687 149.678 57.8346 149.826 58.0315C149.925 58.2283 150.073 58.3759 150.221 58.5235C150.369 58.6711 150.468 58.8187 150.616 58.9664C150.765 59.114 150.913 59.3108 151.061 59.4584C151.209 59.606 151.308 59.7537 151.407 59.9013C151.555 60.1473 151.752 60.3441 151.901 60.541C152.296 60.9346 152.691 61.279 153.037 61.7219C153.135 61.8203 153.283 61.9187 153.382 62.0663C153.53 62.1648 153.58 62.3124 153.679 62.46C153.777 62.6568 153.876 62.8536 154.074 63.0013C154.222 63.0997 154.321 63.2965 154.469 63.4441C154.568 63.5917 154.666 63.6901 154.815 63.7885C155.012 63.9854 155.16 64.1822 155.308 64.4282C155.407 64.5758 155.506 64.7235 155.654 64.8711C155.901 65.0679 156.099 65.3139 156.296 65.6092C156.395 65.7076 156.444 65.8552 156.543 65.9536C156.741 66.1504 156.79 66.3473 156.79 66.6425C156.79 66.7901 156.84 66.8885 156.889 67.0361C156.938 67.1346 156.889 67.233 156.84 67.3314C156.741 67.4298 156.642 67.5774 156.593 67.7742C156.593 67.7742 156.543 67.7742 156.543 67.8234C156.444 67.9711 156.395 68.1187 156.296 68.2171C156.296 68.2171 156.296 68.2663 156.296 68.3155C156.247 68.3155 156.197 68.3155 156.148 68.3647C155.951 68.6107 155.753 68.8076 155.457 68.9552C155.308 69.0536 155.111 69.152 155.012 69.2996C154.815 69.4964 154.568 69.4964 154.37 69.5948C154.271 69.6441 154.123 69.6441 153.975 69.6441C153.876 69.6441 153.777 69.5948 153.679 69.5456C153.333 69.2012 152.888 68.9552 152.543 68.6107C152.444 68.5123 152.394 68.4631 152.296 68.4139C151.999 68.2663 151.752 68.0695 151.505 67.8726C151.407 67.7742 151.308 67.725 151.16 67.6758C150.913 67.6266 150.715 67.5282 150.567 67.2822C150.518 67.1838 150.468 67.0853 150.37 67.0361C150.32 66.9869 150.221 66.9377 150.172 66.8885C150.073 66.8393 149.974 66.7901 149.876 66.7901C149.727 66.4457 149.678 66.4949 149.629 66.4949ZM147.406 63.887L147.456 63.8378C147.456 63.7885 147.456 63.7393 147.357 63.6901H147.307L147.258 63.7393C147.307 63.8378 147.307 63.887 147.406 63.887Z" fill="white"/>
<path d="M155.753 51.3394C155.753 51.241 155.753 51.1426 155.703 50.995C155.604 50.7981 155.555 50.6013 155.456 50.4045C155.308 50.1585 155.259 49.9124 155.259 49.6172C155.259 49.322 155.209 49.0759 155.209 48.7807C155.209 48.5839 155.259 48.3378 155.357 48.141C155.604 47.7474 155.851 47.3537 156.246 47.1077C156.395 47.0093 156.543 46.8617 156.691 46.7141C156.889 46.468 157.135 46.3204 157.432 46.1728C157.58 46.1236 157.728 46.0252 157.876 45.976C157.926 45.9268 158.025 45.8775 158.123 45.8775C158.37 45.8283 158.617 45.7299 158.815 45.6807C159.012 45.6315 159.21 45.5823 159.358 45.5823C159.556 45.5331 159.753 45.5331 159.901 45.5823C160.148 45.6807 160.445 45.6807 160.692 45.7299C161.087 45.8283 161.482 45.976 161.778 46.222C161.877 46.2712 161.926 46.3696 161.976 46.468C162.124 46.7633 162.321 47.0093 162.519 47.3045C162.667 47.5506 162.865 47.7966 162.963 48.0918C163.112 48.387 163.26 48.6823 163.507 48.9283C163.754 49.1743 163.852 49.4696 164.05 49.7156C164.099 49.9616 164.297 50.1585 164.445 50.3061C164.495 50.4045 164.593 50.4537 164.643 50.5521C164.692 50.6505 164.791 50.7489 164.84 50.8473C164.939 51.0934 165.087 51.2902 165.186 51.487C165.235 51.6346 165.285 51.7823 165.186 51.9791C165.137 52.1267 165.038 52.2251 164.939 52.2743C164.89 52.2743 164.84 52.3235 164.791 52.3235C164.445 52.3727 164.149 52.5203 163.902 52.7172C163.704 52.8648 163.457 53.0124 163.161 53.1108C162.865 53.2092 162.568 53.4061 162.321 53.5537C162.223 53.6029 162.223 53.6029 162.272 53.7505C162.223 53.7505 162.173 53.7013 162.124 53.7013C161.877 53.7997 161.679 53.8981 161.432 53.9965C161.383 53.9965 161.334 54.0457 161.284 54.0949C161.037 54.2426 160.889 54.4394 160.889 54.7346C160.889 54.8822 160.889 54.9806 160.939 55.1283C160.939 55.3251 161.037 55.5711 161.136 55.7679C161.235 56.014 161.334 56.2108 161.334 56.4568C161.334 56.8013 161.383 57.0965 161.432 57.4409C161.432 57.4901 161.432 57.5393 161.432 57.5886C161.432 57.6378 161.334 57.7362 161.284 57.7362C161.185 57.7362 161.136 57.7362 161.037 57.687C160.84 57.6378 160.692 57.5393 160.543 57.3917C160.395 57.2441 160.247 57.0965 160.049 56.9489C159.852 56.8013 159.704 56.6044 159.457 56.506C159.259 56.4076 159.111 56.26 159.012 56.0632C158.864 55.8171 158.667 55.5711 158.469 55.3251C158.42 55.2759 158.37 55.2759 158.321 55.2267C158.321 55.1283 158.271 55.0791 158.173 55.0298C158.074 54.9314 158.025 54.9314 157.926 55.0791C157.975 55.0298 158.074 54.9806 158.025 54.8822C157.975 54.7838 157.876 54.6362 157.827 54.5378C157.728 54.2918 157.58 54.0457 157.382 53.8489C157.234 53.7013 157.135 53.5537 157.037 53.4061C156.938 53.1108 156.74 52.914 156.543 52.668C156.444 52.5696 156.296 52.4219 156.246 52.2743C156.148 52.0775 156.049 51.8807 155.901 51.7331C155.851 51.6346 155.802 51.487 155.753 51.3394Z" fill="white"/>
<path d="M167.064 51.5836C166.817 51.6329 166.57 51.6821 166.323 51.6329C166.175 51.6329 166.027 51.5344 165.878 51.436C165.829 51.3868 165.78 51.3868 165.78 51.3376C165.73 51.2392 165.631 51.1408 165.582 51.0424C165.483 50.7964 165.335 50.5995 165.187 50.4519C165.039 50.3043 164.94 50.1567 164.841 50.0091C164.693 49.763 164.495 49.517 164.347 49.271C164.051 48.8773 163.804 48.5329 163.606 48.09C163.508 47.8932 163.409 47.6964 163.261 47.5488C162.915 47.2043 162.717 46.7615 162.52 46.3186C162.47 46.2202 162.47 46.1218 162.372 46.0234C162.174 45.7773 162.174 45.5313 162.125 45.2853C162.125 45.0885 162.125 44.8424 162.125 44.6456C162.125 44.5472 162.125 44.498 162.174 44.3996C162.322 44.0551 162.52 43.8091 162.767 43.5631C163.063 43.2678 163.409 42.9726 163.755 42.7266C164.002 42.579 164.249 42.4313 164.545 42.3329C165.039 42.1853 165.483 42.0377 165.977 41.9393C166.224 41.8409 166.52 41.8409 166.767 41.9393C166.866 41.9885 166.965 42.0377 167.064 42.0377C167.36 42.0377 167.558 42.1853 167.805 42.3329C167.854 42.3821 167.903 42.3821 167.953 42.4313C168.298 42.6282 168.545 42.9234 168.694 43.2678C168.891 43.6123 169.138 43.9075 169.385 44.1536C169.583 44.3996 169.78 44.6456 169.978 44.9408C170.175 45.2361 170.373 45.5313 170.521 45.8266C170.57 45.925 170.62 46.0234 170.719 46.0726C171.163 46.5154 171.459 47.0075 171.756 47.4996C171.805 47.598 171.904 47.7456 172.003 47.844C172.151 47.9916 172.299 48.1884 172.447 48.3361C172.595 48.5329 172.694 48.7297 172.595 49.0249C172.595 49.0741 172.595 49.0741 172.595 49.1234C172.447 49.1726 172.398 49.3202 172.299 49.4186C172.25 49.4678 172.2 49.4678 172.151 49.4678C172.052 49.4678 172.003 49.4678 171.904 49.4678C171.706 49.4186 171.509 49.4678 171.361 49.5662C171.262 49.6646 171.114 49.7138 171.015 49.8122C170.768 49.9599 170.521 50.0583 170.274 50.1075C170.175 50.1075 170.076 50.1567 169.978 50.2059C169.83 50.3043 169.681 50.4027 169.583 50.4519C169.533 50.5011 169.434 50.5503 169.385 50.5995C169.237 50.6487 169.089 50.7471 168.941 50.7471C168.545 50.7964 168.2 50.8948 167.903 51.19C167.805 51.2392 167.656 51.3376 167.558 51.3868C167.36 51.3868 167.212 51.436 167.064 51.5836Z" fill="white"/>
<path d="M203.613 36.0331C203.613 36.0823 203.613 36.1314 203.613 36.1806C203.563 36.2298 203.514 36.279 203.465 36.279C203.218 36.3282 202.971 36.3773 202.773 36.4757C202.625 36.5249 202.477 36.5741 202.329 36.6233C201.736 36.7708 201.193 36.9675 200.6 37.1151C200.205 37.2626 199.76 37.4102 199.365 37.5085C199.316 37.5085 199.266 37.5577 199.217 37.5577C198.822 37.7053 198.427 37.8528 198.081 37.9512C197.686 38.0987 197.291 38.1971 196.896 38.2955C196.451 38.443 196.007 38.5906 195.562 38.6889C195.266 38.7873 194.969 38.8365 194.723 38.984C194.327 39.1807 193.883 39.3775 193.488 39.6234C192.945 39.9185 192.401 40.2136 191.759 40.3611C191.611 40.4103 191.512 40.4595 191.364 40.5087C190.722 40.7546 190.031 41.0005 189.388 41.1972C188.845 41.3448 188.351 41.5415 187.857 41.7874C187.759 41.8366 187.66 41.8366 187.561 41.8366C187.561 41.7874 187.561 41.7874 187.61 41.7874C187.808 41.5907 188.006 41.4923 188.203 41.3939C188.351 41.3448 188.499 41.2464 188.648 41.1972C188.944 41.0497 189.24 40.8529 189.586 40.7054C189.882 40.607 190.179 40.4103 190.475 40.3119C190.92 40.1152 191.364 39.8693 191.759 39.6234C191.907 39.525 192.055 39.4267 192.204 39.3775C192.451 39.2791 192.698 39.1316 192.945 39.0824C193.191 39.0332 193.389 38.9348 193.636 38.7873C193.932 38.6397 194.229 38.5414 194.525 38.3938C194.574 38.3938 194.624 38.3446 194.673 38.3446C194.92 38.3446 195.167 38.2463 195.365 38.0987C195.809 37.8528 196.352 37.7545 196.797 37.5085C197.093 37.4102 197.439 37.3118 197.735 37.2626C198.279 37.1151 198.871 37.0167 199.365 36.82C199.711 36.7708 200.057 36.6724 200.402 36.6233C200.6 36.5741 200.797 36.5741 200.946 36.5249C201.143 36.4757 201.39 36.4757 201.588 36.3773C201.785 36.279 201.983 36.2298 202.23 36.2298C202.477 36.2298 202.724 36.1806 202.921 36.0823C203.02 36.0331 203.119 36.0331 203.218 35.9839C203.415 36.0331 203.514 36.0331 203.613 36.0331Z" fill="#8A2B2B"/>
<path d="M147.753 66.8864C147.802 66.8372 147.852 66.8372 147.901 66.8372C147.901 66.9356 147.95 66.9848 148.049 67.034C148 67.1816 147.95 67.3292 147.901 67.4768C147.802 67.5752 147.704 67.6737 147.654 67.7721C147.407 68.1165 147.21 68.461 146.963 68.7562C146.864 68.9038 146.716 69.0514 146.568 69.1498C146.123 69.4451 145.777 69.7895 145.382 70.134C145.135 70.38 144.839 70.626 144.592 70.872C144.345 71.1181 144.098 71.3641 143.802 71.5609C143.505 71.7578 143.16 72.0038 142.863 72.2006C142.666 72.299 142.518 72.4466 142.32 72.5943C141.925 72.8895 141.579 73.2339 141.184 73.5292C140.74 73.9228 140.344 74.2673 139.999 74.7593C139.949 74.8577 139.851 74.9069 139.801 75.0053C139.554 75.2514 139.357 75.5466 139.11 75.7926C138.962 75.9895 138.813 76.1863 138.715 76.4323C138.665 76.5799 138.566 76.7275 138.517 76.8752C138.27 77.4164 138.023 77.9577 137.826 78.5482C137.776 78.6958 137.727 78.7942 137.677 78.9418C137.529 79.2863 137.381 79.6307 137.184 79.9751C136.986 80.3196 136.838 80.664 136.69 81.0085C136.591 81.1561 136.492 81.3529 136.443 81.5005C136.344 81.6973 136.196 81.9434 136.146 82.1894C136.097 82.337 136.048 82.4846 135.998 82.6323L135.949 82.6815C135.899 82.6815 135.801 82.6815 135.751 82.6815C135.801 82.3862 135.899 82.1402 135.998 81.8942C136.097 81.5989 136.245 81.3529 136.344 81.0577C136.393 80.8608 136.492 80.664 136.64 80.4672C136.739 80.3196 136.788 80.1228 136.838 79.9259C136.887 79.7291 136.986 79.5815 137.035 79.3847C137.184 79.0402 137.282 78.6958 137.43 78.4005C137.579 78.1053 137.727 77.8101 137.826 77.5148C137.924 77.2196 138.073 76.9244 138.221 76.6291C138.369 76.2355 138.616 75.891 138.813 75.5466C138.863 75.4482 138.912 75.3498 139.011 75.3006C139.554 74.6609 140.196 74.0212 140.789 73.3815C141.184 73.0371 141.629 72.6927 142.073 72.3482L142.122 72.299C142.518 72.0038 143.012 71.7578 143.357 71.3641C143.703 71.1181 144.049 70.8228 144.345 70.5276C144.641 70.2816 144.938 70.0355 145.234 69.8387C145.382 69.7403 145.481 69.6419 145.629 69.5435C145.679 69.4943 145.777 69.4451 145.827 69.3959C146.123 69.0022 146.568 68.7562 146.864 68.3625C146.963 68.2149 147.061 68.1165 147.21 68.0181C147.358 67.9197 147.457 67.7721 147.555 67.5752C147.654 67.4276 147.753 67.3292 147.802 67.1816C147.704 67.0832 147.753 66.9848 147.753 66.8864Z" fill="#8A2B2B"/>
<path d="M124.44 87.2561C124.539 87.2561 124.588 87.2561 124.687 87.3053C124.637 87.502 124.588 87.6987 124.489 87.8955C124.341 88.1906 124.242 88.4857 124.143 88.7808C124.094 88.9775 124.045 89.125 123.946 89.3218C123.798 89.7152 123.65 90.0595 123.452 90.453L123.403 90.5021C123.304 90.5021 123.205 90.5021 123.057 90.5021C123.106 90.1087 123.254 89.7152 123.452 89.3709C123.551 89.2726 123.551 89.125 123.6 88.9775C123.897 88.4365 124.094 87.8463 124.44 87.2561Z" fill="#8A2B2B"/>
<path d="M186.721 42.3341C186.721 42.2357 186.721 42.1374 186.721 42.039C186.869 41.8915 187.017 41.8423 187.215 41.8423C187.314 41.8423 187.412 41.8423 187.511 41.8915C187.511 41.8915 187.511 41.9406 187.462 41.9406C187.363 42.039 187.215 42.039 187.116 42.1374C187.017 42.1866 186.869 42.2849 186.721 42.3341Z" fill="#8A2B2B"/>
<path d="M164.743 52.9111C164.694 52.9605 164.644 53.0099 164.546 53.0099C164.595 52.8617 164.644 52.8617 164.743 52.9111Z" fill="white"/>
<path d="M150.173 67.1816C150.272 67.1816 150.37 67.2308 150.42 67.3292C150.37 67.3292 150.272 67.3292 150.222 67.3784C150.173 67.28 150.173 67.2308 150.173 67.1816Z" fill="white"/>
<path d="M133.676 86.9139C133.577 86.963 133.528 87.0614 133.429 87.1106C133.281 87.2581 133.133 87.4057 133.034 87.6024C132.787 88.045 132.59 88.5369 132.343 88.9795C132.293 89.0779 132.244 89.2254 132.194 89.373C132.096 89.7664 131.948 90.1107 131.849 90.455C131.799 90.5533 131.799 90.6025 131.799 90.7009C131.602 91.0944 131.503 91.5862 131.305 91.9796C131.207 91.9796 131.108 91.9796 131.009 91.9796C131.009 91.9305 131.009 91.9305 131.009 91.8813C131.108 91.1435 131.207 90.8484 131.454 90.2583C131.503 90.1107 131.552 89.9632 131.602 89.8156C131.701 89.5205 131.75 89.1762 131.898 88.8811C131.948 88.832 131.948 88.7336 131.948 88.6352C132.046 88.2418 132.194 87.9467 132.392 87.6024C132.54 87.3073 132.738 87.0614 133.034 86.9139C133.232 86.8155 133.38 86.6188 133.577 86.5696C133.627 86.7171 133.627 86.8155 133.676 86.9139Z" fill="#8A2B2B"/>
<path d="M134.96 93.1597C134.96 93.0614 134.96 93.0122 135.009 92.9138C135.108 92.6187 135.256 92.3728 135.305 92.0777C135.305 92.0285 135.305 92.0285 135.305 91.9793C135.552 91.4875 135.7 90.9957 135.898 90.5039C136.145 89.9137 136.244 89.3235 136.293 88.6841C136.293 88.5366 136.293 88.4382 136.293 88.2907C136.293 87.9956 136.194 87.7005 136.096 87.4054C136.194 87.4054 136.293 87.4054 136.392 87.3562C136.491 87.5037 136.54 87.6513 136.589 87.7988C136.589 87.9956 136.639 88.1923 136.639 88.3398C136.639 88.7333 136.639 89.1268 136.589 89.5694C136.589 89.7661 136.54 89.9629 136.491 90.1104C136.392 90.3071 136.343 90.5039 136.244 90.7006C135.997 90.9465 135.947 91.2908 135.898 91.5859C135.849 91.6843 135.849 91.7826 135.799 91.881C135.651 92.2744 135.453 92.6679 135.305 93.0614C135.108 93.1597 135.009 93.1597 134.96 93.1597Z" fill="#8A2B2B"/>
<path d="M148.098 68.2154C148 67.9695 147.901 67.7236 147.802 67.4777C147.851 67.3302 147.95 67.1826 147.95 67.0351C148 67.0351 148 66.9367 148 66.8383C148.148 66.8383 148.148 66.8383 148.197 66.6416C148.296 66.6416 148.345 66.6416 148.444 66.6416C148.839 66.6416 148.938 66.9859 148.79 67.281C148.74 67.3793 148.691 67.4777 148.642 67.5269C148.444 67.822 148.296 68.0187 148.098 68.2154Z" fill="white"/>
<path d="M147.406 63.8844C147.357 63.8844 147.307 63.8352 147.307 63.786C147.307 63.786 147.307 63.7368 147.357 63.7368H147.406C147.455 63.7368 147.505 63.786 147.505 63.8844C147.455 63.8352 147.406 63.8844 147.406 63.8844Z" fill="white"/>
<path d="M148.049 66.8367C148.098 66.9351 148.049 67.0334 147.999 67.0334C147.95 66.9842 147.901 66.9351 147.851 66.8367C147.95 66.7875 147.999 66.7875 148.049 66.8367Z" fill="#CC3030"/>
<path d="M148.197 66.6896C148.197 66.8372 148.148 66.8863 148 66.8863C148 66.6896 148 66.6404 148.197 66.6896Z" fill="#CC3030"/>
<path d="M132.292 92.5707C132.292 92.5215 132.292 92.4232 132.341 92.3248C132.44 92.0297 132.539 91.7838 132.637 91.4887C132.835 90.9969 132.983 90.505 133.131 90.0132C133.181 89.7673 133.279 89.5706 133.378 89.3247C133.526 88.9804 133.675 88.6361 133.773 88.2427C133.773 88.1443 133.823 88.0951 133.872 88.0459C134.02 87.8492 134.168 87.7508 134.415 87.7508C134.662 87.7016 134.909 87.8 135.107 87.9476C135.255 88.0951 135.304 88.2427 135.354 88.4394C135.354 88.4886 135.354 88.5377 135.354 88.5869C135.304 88.7837 135.255 88.9804 135.156 89.2263C134.959 89.7673 134.761 90.3575 134.564 90.8985C134.514 90.9969 134.514 91.0461 134.465 91.1444C134.218 91.7346 133.971 92.374 133.724 92.9642C133.576 93.2593 133.329 93.4068 133.033 93.456C132.983 93.456 132.983 93.456 132.934 93.456C132.637 93.4068 132.44 93.2593 132.292 93.0133C132.292 92.915 132.292 92.7674 132.292 92.5707Z" fill="#AD2424"/>
</g>
</g>
<defs>
<filter id="filter0_d_1041_89" x="0.381914" y="0.484853" width="235.495" height="133.698" filterUnits="userSpaceOnUse" color-interpolation-filters="sRGB">
<feFlood flood-opacity="0" result="BackgroundImageFix"/>
<feColorMatrix in="SourceAlpha" type="matrix" values="0 0 0 0 0 0 0 0 0 0 0 0 0 0 0 0 0 0 127 0" result="hardAlpha"/>
<feOffset dy="1.21299"/>
<feGaussianBlur stdDeviation="8.4909"/>
<feComposite in2="hardAlpha" operator="out"/>
<feColorMatrix type="matrix" values="0 0 0 0 0 0 0 0 0 0 0 0 0 0 0 0 0 0 0.7 0"/>
<feBlend mode="normal" in2="BackgroundImageFix" result="effect1_dropShadow_1041_89"/>
<feBlend mode="normal" in="SourceGraphic" in2="effect1_dropShadow_1041_89" result="shape"/>
</filter>
</defs>
</svg>
